<svg width="22" height="16" viewBox="0 0 22 16" fill="none" xmlns="http://www.w3.org/2000/svg">
<path d="M0.715332 0.904V0H2.73133V0.904H0.715332Z" fill="#49B267"/>
<path d="M3.13252 0.904V0H5.14852V0.904H3.13252Z" fill="#49B267"/>
<path d="M5.54971 0.904V0H7.56571V0.904H5.54971Z" fill="#49B267"/>
<path d="M12.0463 0.904V0H15.5023V0.904H12.0463Z" fill="#49B267"/>
<path d="M19.9841 0.904V0H22.0001V0.904H19.9841Z" fill="#49B267"/>
<path d="M14.0898 13.2241C14.0898 12.4161 14.2658 11.7681 14.6258 11.2721C14.9858 10.7761 15.5058 10.5281 16.1858 10.5281C16.8658 10.5281 17.3858 10.7761 17.7378 11.2721C18.0978 11.7681 18.2738 12.4161 18.2738 13.2241C18.2738 14.7841 17.5698 16.0001 16.1858 16.0001C14.7938 16.0001 14.0898 14.7841 14.0898 13.2241ZM17.1618 13.2321C17.1618 12.1121 16.8578 11.5281 16.1858 11.5281C15.5058 11.5281 15.2018 12.1121 15.2018 13.2321C15.2018 14.4081 15.5298 15.0001 16.1858 15.0001C16.8338 15.0001 17.1618 14.4081 17.1618 13.2321Z" fill="#49B267"/>
<path d="M21.64 10.6241H22V15.9041H20.92V11.9041L19.92 12.2241L19.664 11.2721L21.64 10.6241Z" fill="#49B267"/>
</svg>
