<svg width="22" height="16" viewBox="0 0 22 16" fill="none" xmlns="http://www.w3.org/2000/svg">
<path d="M0 0.904V0H2.016V0.904H0Z" fill="#49B267"/>
<path d="M2.41719 0.904V0H4.43319V0.904H2.41719Z" fill="#49B267"/>
<path d="M4.83437 0.904V0H6.85038V0.904H4.83437Z" fill="#49B267"/>
<path d="M11.3309 0.904V0H14.7869V0.904H11.3309Z" fill="#49B267"/>
<path d="M19.2687 0.904V0H21.2847V0.904H19.2687Z" fill="#49B267"/>
<path d="M11.5986 13.2241C11.5986 12.4161 11.7746 11.7681 12.1346 11.2721C12.4946 10.7761 13.0146 10.5281 13.6946 10.5281C14.3746 10.5281 14.8946 10.7761 15.2466 11.2721C15.6066 11.7681 15.7826 12.4161 15.7826 13.2241C15.7826 14.7841 15.0786 16.0001 13.6946 16.0001C12.3026 16.0001 11.5986 14.7841 11.5986 13.2241ZM14.6706 13.2321C14.6706 12.1121 14.3666 11.5281 13.6946 11.5281C13.0146 11.5281 12.7106 12.1121 12.7106 13.2321C12.7106 14.4081 13.0386 15.0001 13.6946 15.0001C14.3426 15.0001 14.6706 14.4081 14.6706 13.2321Z" fill="#49B267"/>
<path d="M19.3168 14.9841H21.2848V15.9041L17.3888 15.9121V15.6801L19.2768 13.6321C19.7968 13.0641 20.0208 12.6961 20.0208 12.3041C20.0208 11.8481 19.7328 11.5281 19.2848 11.5281C18.8368 11.5281 18.5408 11.8561 18.5408 12.3361C18.5408 12.4321 18.5568 12.5601 18.5808 12.7201H17.4928C17.4528 12.5761 17.4368 12.4241 17.4368 12.2721C17.4368 11.3761 18.1728 10.5281 19.3008 10.5281C20.3568 10.5281 21.1328 11.2561 21.1328 12.2161C21.1328 12.5761 21.0368 12.9041 20.8448 13.2161C20.6528 13.5201 20.3728 13.8721 19.9968 14.2641L19.3168 14.9841Z" fill="#49B267"/>
</svg>
