<svg width="22" height="17" viewBox="0 0 22 17" fill="none" xmlns="http://www.w3.org/2000/svg">
<path d="M0.715332 1.41694V0.512939H2.73133V1.41694H0.715332Z" fill="#49B267"/>
<path d="M3.13252 1.41694V0.512939H5.14852V1.41694H3.13252Z" fill="#49B267"/>
<path d="M5.54971 1.41694V0.512939H7.56571V1.41694H5.54971Z" fill="#49B267"/>
<path d="M12.0463 1.41694V0.512939H15.5023V1.41694H12.0463Z" fill="#49B267"/>
<path d="M19.9841 1.41694V0.512939H22.0001V1.41694H19.9841Z" fill="#49B267"/>
<path d="M0.715332 13.737C0.715332 12.929 0.891332 12.281 1.25133 11.785C1.61133 11.289 2.13133 11.041 2.81133 11.041C3.49133 11.041 4.01133 11.289 4.36333 11.785C4.72333 12.281 4.89933 12.929 4.89933 13.737C4.89933 15.297 4.19533 16.513 2.81133 16.513C1.41933 16.513 0.715332 15.297 0.715332 13.737ZM3.78733 13.745C3.78733 12.625 3.48333 12.041 2.81133 12.041C2.13133 12.041 1.82733 12.625 1.82733 13.745C1.82733 14.921 2.15533 15.513 2.81133 15.513C3.45933 15.513 3.78733 14.921 3.78733 13.745Z" fill="#49B267"/>
<path d="M10.1775 14.689C10.1775 15.753 9.28146 16.513 8.18546 16.513C7.31346 16.513 6.62546 16.041 6.26546 15.313L7.01746 14.785C7.33746 15.265 7.66546 15.513 8.15346 15.513C8.68946 15.513 9.07346 15.201 9.07346 14.697C9.07346 14.209 8.69746 13.937 7.99346 13.937H7.32946V13.657L8.43346 12.113H6.67346V11.137H10.0735V11.425L8.90546 13.073C9.26546 13.169 9.56146 13.361 9.80946 13.641C10.0575 13.921 10.1775 14.273 10.1775 14.689Z" fill="#49B267"/>
</svg>
