<svg width="43" height="17" viewBox="0 0 43 17" fill="none" xmlns="http://www.w3.org/2000/svg">
<rect y="0.512939" width="1" height="1" fill="#49B267"/>
<rect y="3.51294" width="1" height="1" fill="#49B267"/>
<rect y="6.51294" width="1" height="1" fill="#49B267"/>
<rect y="9.51294" width="1" height="1" fill="#49B267"/>
<rect y="12.5129" width="1" height="1" fill="#49B267"/>
<rect y="15.5129" width="1" height="1" fill="#49B267"/>
<rect x="3" y="0.512939" width="1" height="1" fill="#49B267"/>
<rect x="3" y="3.51294" width="1" height="1" fill="#49B267"/>
<rect x="2" y="6.51294" width="1" height="1" fill="#49B267"/>
<rect x="2" y="9.51294" width="1" height="1" fill="#49B267"/>
<rect x="3" y="12.5129" width="1" height="1" fill="#49B267"/>
<rect x="3" y="15.5129" width="1" height="1" fill="#49B267"/>
<rect x="6" y="0.512939" width="1" height="1" fill="#49B267"/>
<rect x="6" y="2.51294" width="1" height="1" fill="#49B267"/>
<rect x="5" y="5.51294" width="1" height="1" fill="#49B267"/>
<rect x="5" y="10.5129" width="1" height="1" fill="#49B267"/>
<rect x="6" y="13.5129" width="1" height="1" fill="#49B267"/>
<rect x="6" y="15.5129" width="1" height="1" fill="#49B267"/>
<rect x="9" y="0.512939" width="1" height="1" fill="#49B267"/>
<rect x="9" y="2.51294" width="1" height="1" fill="#49B267"/>
<rect x="10" y="5.51294" width="1" height="1" fill="#49B267"/>
<rect x="10" y="10.5129" width="1" height="1" fill="#49B267"/>
<rect x="9" y="13.5129" width="1" height="1" fill="#49B267"/>
<rect x="9" y="15.5129" width="1" height="1" fill="#49B267"/>
<rect x="12" y="0.512939" width="1" height="1" fill="#49B267"/>
<rect x="15" y="0.512939" width="1" height="1" fill="#49B267"/>
<rect x="12" y="3.51294" width="1" height="1" fill="#49B267"/>
<rect x="15" y="3.51294" width="1" height="1" fill="#49B267"/>
<rect x="13" y="6.51294" width="1" height="1" fill="#49B267"/>
<rect x="15" y="6.51294" width="1" height="1" fill="#49B267"/>
<rect x="13" y="9.51294" width="1" height="1" fill="#49B267"/>
<rect x="15" y="9.51294" width="1" height="1" fill="#49B267"/>
<rect x="12" y="12.5129" width="1" height="1" fill="#49B267"/>
<rect x="15" y="12.5129" width="1" height="1" fill="#49B267"/>
<rect x="12" y="15.5129" width="1" height="1" fill="#49B267"/>
<rect x="15" y="15.5129" width="1" height="1" fill="#49B267"/>
<path d="M20 1.41694V0.512939H22.016V1.41694H20Z" fill="#49B267"/>
<path d="M22.4172 1.41694V0.512939H24.4332V1.41694H22.4172Z" fill="#49B267"/>
<path d="M24.8344 1.41694V0.512939H26.8504V1.41694H24.8344Z" fill="#49B267"/>
<path d="M31.3309 1.41694V0.512939H34.7869V1.41694H31.3309Z" fill="#49B267"/>
<path d="M39.2687 1.41694V0.512939H41.2847V1.41694H39.2687Z" fill="#49B267"/>
<path d="M20 16.4164V11.1364H21.08V15.4404H23.392V16.4164H20Z" fill="#49B267"/>
<path d="M24.5741 13.7764C24.5501 12.2644 25.8541 11.0084 27.3901 11.0404C28.3901 11.0404 29.2461 11.5284 29.7181 12.3524L28.9021 12.9284C28.5261 12.3364 28.0221 12.0404 27.3901 12.0404C26.4061 12.0404 25.6861 12.7764 25.6861 13.7844C25.6861 14.7924 26.4061 15.5124 27.3901 15.5124C28.0221 15.5124 28.5261 15.2164 28.9021 14.6244L29.7181 15.2004C29.2621 16.0244 28.3981 16.5124 27.3821 16.5124C25.8381 16.5444 24.5421 15.2884 24.5741 13.7764Z" fill="#49B267"/>
<path d="M36.0839 16.4164H34.7799L32.5159 13.6644V16.4164H31.4359V11.1364H32.5159V13.5844L34.5319 11.1364H35.8199L33.7959 13.6244L36.0839 16.4164Z" fill="#49B267"/>
<path d="M37.5953 16.4164V11.1364H39.3233C40.9953 11.1204 42.2273 12.2004 42.2033 13.7604C42.2273 15.2884 40.9953 16.4404 39.3233 16.4164H37.5953ZM38.6753 15.4404H39.3153C40.3793 15.4404 41.0913 14.7764 41.0913 13.7604C41.0913 12.7364 40.3953 12.1124 39.3153 12.1124H38.6753V15.4404Z" fill="#49B267"/>
</svg>
