<svg width="63" height="16" viewBox="0 0 63 16" fill="none" xmlns="http://www.w3.org/2000/svg">
<path d="M0 0.904V0H2.016V0.904H0Z" fill="#49B267"/>
<path d="M2.41719 0.904V0H4.43319V0.904H2.41719Z" fill="#49B267"/>
<path d="M4.83437 0.904V0H6.85038V0.904H4.83437Z" fill="#49B267"/>
<path d="M11.3309 0.904V0H14.7869V0.904H11.3309Z" fill="#49B267"/>
<path d="M19.2687 0.904V0H21.2847V0.904H19.2687Z" fill="#49B267"/>
<path d="M4.456 15.9035H3.24L1.872 14.0395H1.08V15.9035H0V10.6235H1.984C3.088 10.6235 3.888 11.3115 3.888 12.3275C3.888 12.9995 3.536 13.5435 2.96 13.8315L4.456 15.9035ZM1.08 11.5755V13.0875H1.984C2.488 13.0875 2.784 12.7835 2.784 12.3275C2.784 11.8795 2.472 11.5755 1.984 11.5755H1.08Z" fill="#49B267"/>
<path d="M5.11719 15.9035V10.6235H6.19719V15.9035H5.11719Z" fill="#49B267"/>
<path d="M10.7583 10.6235H11.9742L9.62225 15.9995H9.26225L6.90225 10.6235H8.12625L9.44625 13.8235L10.7583 10.6235Z" fill="#49B267"/>
<path d="M15.4627 15.9035L15.1667 15.2155H13.0067L12.7107 15.9035H11.5507L13.9107 10.5275H14.2707L16.6227 15.9035H15.4627ZM14.7907 14.3275L14.0867 12.5435L13.3827 14.3275H14.7907Z" fill="#49B267"/>
<path d="M17.3438 15.9035V10.6235H18.4237V14.9275H20.7358V15.9035H17.3438Z" fill="#49B267"/>
<path d="M22.7551 14.9275H25.4111V15.9035H21.0911V15.6155L23.7391 11.5995H21.4351V10.6235H25.4031V10.9115L22.7551 14.9275Z" fill="#49B267"/>
<path d="M32.9404 15.9035H31.7244L30.3564 14.0395H29.5644V15.9035H28.4844V10.6235H30.4684C31.5724 10.6235 32.3724 11.3115 32.3724 12.3275C32.3724 12.9995 32.0204 13.5435 31.4444 13.8315L32.9404 15.9035ZM29.5644 11.5755V13.0875H30.4684C30.9724 13.0875 31.2684 12.7835 31.2684 12.3275C31.2684 11.8795 30.9564 11.5755 30.4684 11.5755H29.5644Z" fill="#49B267"/>
<path d="M33.1804 13.2635C33.1564 11.7515 34.4604 10.4955 35.9804 10.5275C37.5004 10.4955 38.8204 11.7515 38.7964 13.2635C38.8204 14.7755 37.5004 16.0315 35.9804 15.9995C34.4604 16.0315 33.1564 14.7755 33.1804 13.2635ZM37.6844 13.2635C37.6844 12.2635 36.9564 11.5275 35.9884 11.5275C35.0124 11.5275 34.2924 12.2475 34.2924 13.2635C34.2924 14.2795 35.0124 14.9995 35.9884 14.9995C36.9564 14.9995 37.6844 14.2795 37.6844 13.2635Z" fill="#49B267"/>
<path d="M39.7109 15.9035V10.6235H40.7909V14.9275H43.1029V15.9035H39.7109Z" fill="#49B267"/>
<path d="M43.9062 15.9035V10.6235H44.9863V14.9275H47.2982V15.9035H43.9062Z" fill="#49B267"/>
<path d="M51.5096 15.9035L51.2136 15.2155H49.0536L48.7576 15.9035H47.5976L49.9576 10.5275H50.3176L52.6696 15.9035H51.5096ZM50.8376 14.3275L50.1336 12.5435L49.4296 14.3275H50.8376Z" fill="#49B267"/>
<path d="M53.3906 15.9035V10.6235H55.3746C56.4786 10.6235 57.2786 11.3115 57.2786 12.3275C57.2786 13.3355 56.4786 14.0395 55.3746 14.0395H54.4706V15.9035H53.3906ZM54.4706 13.0955H55.3746C55.8786 13.0955 56.1746 12.7835 56.1746 12.3275C56.1746 11.8795 55.8626 11.5755 55.3746 11.5755H54.4706V13.0955Z" fill="#49B267"/>
<path d="M58.1406 15.9035V10.6235H60.1246C61.2286 10.6235 62.0286 11.3115 62.0286 12.3275C62.0286 13.3355 61.2286 14.0395 60.1246 14.0395H59.2206V15.9035H58.1406ZM59.2206 13.0955H60.1246C60.6286 13.0955 60.9246 12.7835 60.9246 12.3275C60.9246 11.8795 60.6126 11.5755 60.1246 11.5755H59.2206V13.0955Z" fill="#49B267"/>
</svg>
