<svg width="73" height="17" viewBox="0 0 73 17" fill="none" xmlns="http://www.w3.org/2000/svg">
<path d="M0 10.0127H28.5L31.5 13.126H44L49 10.7393V16.5127L44 14.126H31L28 11.0127H22.5L26 14.5127H27L28 13.5127V16.5127H25L19.5 11.0127H16L19.5 14.5127H20.5L21.5 13.5127V16.5127H18.5L13 11.0127H9.5L13 14.5127H14L15 13.5127V16.5127H12L6.5 11.0127H3L6.5 14.5127H7.5L8.5 13.5127V16.5127H5.5L0 11.0127V10.0127Z" fill="#49B267"/>
<path d="M36 3.0127V1.0127H38V3.0127H36Z" fill="#49B267"/>
<path d="M49 3.0127V1.0127H47V3.0127H49Z" fill="#49B267"/>
<path d="M32 3.0127V1.0127H34V3.0127H32Z" fill="#49B267"/>
<path d="M73 0.512695V1.5127L65 1.5127V5.51269L60 0.512695L73 0.512695Z" fill="#49B267"/>
<path d="M73 13.5127V2.5127H69V9.51269L73 13.5127Z" fill="#49B267"/>
<path d="M73 15.5127V16.5127H57V10.5124H60.0001L57 7.51269V5.51269L67 15.5127L73 15.5127Z" fill="#49B267"/>
</svg>
