<svg width="134" height="21" viewBox="0 0 134 21" fill="none" xmlns="http://www.w3.org/2000/svg">
<path d="M22 0.512695H24V2.5127H22V0.512695Z" fill="#49B267"/>
<path d="M0 4.5127H24V8.5127H23V5.5127H1V8.5127H0V4.5127Z" fill="#49B267"/>
<path d="M0 20.5127H24V16.5127H23V19.5127H1V16.5127H0V20.5127Z" fill="#49B267"/>
<path d="M30 18.5127L28 20.5127H26L30 16.5127V18.5127Z" fill="#49B267"/>
<path d="M30 14.5127V12.5127L26 16.5127V18.5127L30 14.5127Z" fill="#49B267"/>
<path d="M30 8.5127V10.5127L26 14.5127V12.5127L30 8.5127Z" fill="#49B267"/>
<path d="M30 6.5127V4.5127L26 8.5127V10.5127L30 6.5127Z" fill="#49B267"/>
<path d="M28 4.5127L26 6.5127V4.5127H28Z" fill="#49B267"/>
<path d="M20 0.512695H18V2.5127H20V0.512695Z" fill="#49B267"/>
<path d="M3 15.5127H5V17.5127H3V15.5127Z" fill="#49B267"/>
<path d="M32 4.5127H31V20.5127H32V4.5127Z" fill="#49B267"/>
<path fill-rule="evenodd" clip-rule="evenodd" d="M40 4.96582L45 7.35257H76V8.35257H45L40 10.7393V4.96582Z" fill="#49B267"/>
<path fill-rule="evenodd" clip-rule="evenodd" d="M40 14.7393L45 17.126H108V18.126H45L40 20.5128V14.7393Z" fill="#49B267"/>
</svg>
