<svg width="525" height="589" viewBox="0 0 525 589" fill="none" xmlns="http://www.w3.org/2000/svg">
<g clip-path="url(#clip0_432_11669)">
<rect x="14.5" y="20.5127" width="2" height="2" fill="#1C4327"/>
<rect x="40.5" y="20.5127" width="2" height="2" fill="#1C4327"/>
<rect x="66.5" y="20.5127" width="2" height="2" fill="#1C4327"/>
<rect x="92.5" y="20.5127" width="2" height="2" fill="#1C4327"/>
<rect x="118.5" y="20.5127" width="2" height="2" fill="#1C4327"/>
<rect x="144.5" y="20.5127" width="2" height="2" fill="#1C4327"/>
<rect x="170.5" y="20.5127" width="2" height="2" fill="#1C4327"/>
<rect x="196.5" y="20.5127" width="2" height="2" fill="#1C4327"/>
<rect x="222.5" y="20.5127" width="2" height="2" fill="#1C4327"/>
<rect x="248.5" y="20.5127" width="2" height="2" fill="#1C4327"/>
<rect x="274.5" y="20.5127" width="2" height="2" fill="#1C4327"/>
<rect x="300.5" y="20.5127" width="2" height="2" fill="#1C4327"/>
<rect x="326.5" y="20.5127" width="2" height="2" fill="#1C4327"/>
<rect x="352.5" y="20.5127" width="2" height="2" fill="#1C4327"/>
<rect x="378.5" y="20.5127" width="2" height="2" fill="#1C4327"/>
<rect x="404.5" y="20.5127" width="2" height="2" fill="#1C4327"/>
<rect x="430.5" y="20.5127" width="2" height="2" fill="#1C4327"/>
<rect x="456.5" y="20.5127" width="2" height="2" fill="#1C4327"/>
<rect x="482.5" y="20.5127" width="2" height="2" fill="#1C4327"/>
<rect x="508.5" y="20.5127" width="2" height="2" fill="#1C4327"/>
<rect x="14.5" y="46.5127" width="2" height="2" fill="#1C4327"/>
<rect x="40.5" y="46.5127" width="2" height="2" fill="#1C4327"/>
<rect x="66.5" y="46.5127" width="2" height="2" fill="#1C4327"/>
<rect x="92.5" y="46.5127" width="2" height="2" fill="#1C4327"/>
<rect x="118.5" y="46.5127" width="2" height="2" fill="#1C4327"/>
<rect x="144.5" y="46.5127" width="2" height="2" fill="#1C4327"/>
<rect x="170.5" y="46.5127" width="2" height="2" fill="#1C4327"/>
<rect x="196.5" y="46.5127" width="2" height="2" fill="#1C4327"/>
<rect x="222.5" y="46.5127" width="2" height="2" fill="#1C4327"/>
<rect x="248.5" y="46.5127" width="2" height="2" fill="#1C4327"/>
<rect x="274.5" y="46.5127" width="2" height="2" fill="#1C4327"/>
<rect x="300.5" y="46.5127" width="2" height="2" fill="#1C4327"/>
<rect x="326.5" y="46.5127" width="2" height="2" fill="#1C4327"/>
<rect x="352.5" y="46.5127" width="2" height="2" fill="#1C4327"/>
<rect x="378.5" y="46.5127" width="2" height="2" fill="#1C4327"/>
<rect x="404.5" y="46.5127" width="2" height="2" fill="#1C4327"/>
<rect x="430.5" y="46.5127" width="2" height="2" fill="#1C4327"/>
<rect x="456.5" y="46.5127" width="2" height="2" fill="#1C4327"/>
<rect x="482.5" y="46.5127" width="2" height="2" fill="#1C4327"/>
<rect x="508.5" y="46.5127" width="2" height="2" fill="#1C4327"/>
<rect x="14.5" y="72.5127" width="2" height="2" fill="#1C4327"/>
<rect x="40.5" y="72.5127" width="2" height="2" fill="#1C4327"/>
<rect x="66.5" y="72.5127" width="2" height="2" fill="#1C4327"/>
<rect x="92.5" y="72.5127" width="2" height="2" fill="#1C4327"/>
<rect x="118.5" y="72.5127" width="2" height="2" fill="#1C4327"/>
<rect x="144.5" y="72.5127" width="2" height="2" fill="#1C4327"/>
<rect x="170.5" y="72.5127" width="2" height="2" fill="#1C4327"/>
<rect x="196.5" y="72.5127" width="2" height="2" fill="#1C4327"/>
<rect x="222.5" y="72.5127" width="2" height="2" fill="#1C4327"/>
<rect x="248.5" y="72.5127" width="2" height="2" fill="#1C4327"/>
<rect x="274.5" y="72.5127" width="2" height="2" fill="#1C4327"/>
<rect x="300.5" y="72.5127" width="2" height="2" fill="#1C4327"/>
<rect x="326.5" y="72.5127" width="2" height="2" fill="#1C4327"/>
<rect x="352.5" y="72.5127" width="2" height="2" fill="#1C4327"/>
<rect x="378.5" y="72.5127" width="2" height="2" fill="#1C4327"/>
<rect x="404.5" y="72.5127" width="2" height="2" fill="#1C4327"/>
<rect x="430.5" y="72.5127" width="2" height="2" fill="#1C4327"/>
<rect x="456.5" y="72.5127" width="2" height="2" fill="#1C4327"/>
<rect x="482.5" y="72.5127" width="2" height="2" fill="#1C4327"/>
<rect x="508.5" y="72.5127" width="2" height="2" fill="#1C4327"/>
<rect x="14.5" y="98.5127" width="2" height="2" fill="#1C4327"/>
<rect x="40.5" y="98.5127" width="2" height="2" fill="#1C4327"/>
<rect x="66.5" y="98.5127" width="2" height="2" fill="#1C4327"/>
<rect x="92.5" y="98.5127" width="2" height="2" fill="#1C4327"/>
<rect x="118.5" y="98.5127" width="2" height="2" fill="#1C4327"/>
<rect x="144.5" y="98.5127" width="2" height="2" fill="#1C4327"/>
<rect x="170.5" y="98.5127" width="2" height="2" fill="#1C4327"/>
<rect x="196.5" y="98.5127" width="2" height="2" fill="#1C4327"/>
<rect x="222.5" y="98.5127" width="2" height="2" fill="#1C4327"/>
<rect x="248.5" y="98.5127" width="2" height="2" fill="#1C4327"/>
<rect x="274.5" y="98.5127" width="2" height="2" fill="#1C4327"/>
<rect x="300.5" y="98.5127" width="2" height="2" fill="#1C4327"/>
<rect x="326.5" y="98.5127" width="2" height="2" fill="#1C4327"/>
<rect x="352.5" y="98.5127" width="2" height="2" fill="#1C4327"/>
<rect x="378.5" y="98.5127" width="2" height="2" fill="#1C4327"/>
<rect x="404.5" y="98.5127" width="2" height="2" fill="#1C4327"/>
<rect x="430.5" y="98.5127" width="2" height="2" fill="#1C4327"/>
<rect x="456.5" y="98.5127" width="2" height="2" fill="#1C4327"/>
<rect x="482.5" y="98.5127" width="2" height="2" fill="#1C4327"/>
<rect x="508.5" y="98.5127" width="2" height="2" fill="#1C4327"/>
<rect x="14.5" y="124.513" width="2" height="2" fill="#1C4327"/>
<rect x="40.5" y="124.513" width="2" height="2" fill="#1C4327"/>
<rect x="66.5" y="124.513" width="2" height="2" fill="#1C4327"/>
<rect x="92.5" y="124.513" width="2" height="2" fill="#1C4327"/>
<rect x="118.5" y="124.513" width="2" height="2" fill="#1C4327"/>
<rect x="144.5" y="124.513" width="2" height="2" fill="#1C4327"/>
<rect x="170.5" y="124.513" width="2" height="2" fill="#1C4327"/>
<rect x="196.5" y="124.513" width="2" height="2" fill="#1C4327"/>
<rect x="222.5" y="124.513" width="2" height="2" fill="#1C4327"/>
<rect x="248.5" y="124.513" width="2" height="2" fill="#1C4327"/>
<rect x="274.5" y="124.513" width="2" height="2" fill="#1C4327"/>
<rect x="300.5" y="124.513" width="2" height="2" fill="#1C4327"/>
<rect x="326.5" y="124.513" width="2" height="2" fill="#1C4327"/>
<rect x="352.5" y="124.513" width="2" height="2" fill="#1C4327"/>
<rect x="378.5" y="124.513" width="2" height="2" fill="#1C4327"/>
<rect x="404.5" y="124.513" width="2" height="2" fill="#1C4327"/>
<rect x="430.5" y="124.513" width="2" height="2" fill="#1C4327"/>
<rect x="456.5" y="124.513" width="2" height="2" fill="#1C4327"/>
<rect x="482.5" y="124.513" width="2" height="2" fill="#1C4327"/>
<rect x="508.5" y="124.513" width="2" height="2" fill="#1C4327"/>
<rect x="14.5" y="150.513" width="2" height="2" fill="#1C4327"/>
<rect x="40.5" y="150.513" width="2" height="2" fill="#1C4327"/>
<rect x="66.5" y="150.513" width="2" height="2" fill="#1C4327"/>
<rect x="92.5" y="150.513" width="2" height="2" fill="#1C4327"/>
<rect x="118.5" y="150.513" width="2" height="2" fill="#1C4327"/>
<rect x="144.5" y="150.513" width="2" height="2" fill="#1C4327"/>
<rect x="170.5" y="150.513" width="2" height="2" fill="#1C4327"/>
<rect x="196.5" y="150.513" width="2" height="2" fill="#1C4327"/>
<rect x="222.5" y="150.513" width="2" height="2" fill="#1C4327"/>
<rect x="248.5" y="150.513" width="2" height="2" fill="#1C4327"/>
<rect x="274.5" y="150.513" width="2" height="2" fill="#1C4327"/>
<rect x="300.5" y="150.513" width="2" height="2" fill="#1C4327"/>
<rect x="326.5" y="150.513" width="2" height="2" fill="#1C4327"/>
<rect x="352.5" y="150.513" width="2" height="2" fill="#1C4327"/>
<rect x="378.5" y="150.513" width="2" height="2" fill="#1C4327"/>
<rect x="404.5" y="150.513" width="2" height="2" fill="#1C4327"/>
<rect x="430.5" y="150.513" width="2" height="2" fill="#1C4327"/>
<rect x="456.5" y="150.513" width="2" height="2" fill="#1C4327"/>
<rect x="482.5" y="150.513" width="2" height="2" fill="#1C4327"/>
<rect x="508.5" y="150.513" width="2" height="2" fill="#1C4327"/>
<rect x="14.5" y="176.513" width="2" height="2" fill="#1C4327"/>
<rect x="40.5" y="176.513" width="2" height="2" fill="#1C4327"/>
<rect x="66.5" y="176.513" width="2" height="2" fill="#1C4327"/>
<rect x="92.5" y="176.513" width="2" height="2" fill="#1C4327"/>
<rect x="118.5" y="176.513" width="2" height="2" fill="#1C4327"/>
<rect x="144.5" y="176.513" width="2" height="2" fill="#1C4327"/>
<rect x="170.5" y="176.513" width="2" height="2" fill="#1C4327"/>
<rect x="196.5" y="176.513" width="2" height="2" fill="#1C4327"/>
<rect x="222.5" y="176.513" width="2" height="2" fill="#1C4327"/>
<rect x="248.5" y="176.513" width="2" height="2" fill="#1C4327"/>
<rect x="274.5" y="176.513" width="2" height="2" fill="#1C4327"/>
<rect x="300.5" y="176.513" width="2" height="2" fill="#1C4327"/>
<rect x="326.5" y="176.513" width="2" height="2" fill="#1C4327"/>
<rect x="352.5" y="176.513" width="2" height="2" fill="#1C4327"/>
<rect x="378.5" y="176.513" width="2" height="2" fill="#1C4327"/>
<rect x="404.5" y="176.513" width="2" height="2" fill="#1C4327"/>
<rect x="430.5" y="176.513" width="2" height="2" fill="#1C4327"/>
<rect x="456.5" y="176.513" width="2" height="2" fill="#1C4327"/>
<rect x="482.5" y="176.513" width="2" height="2" fill="#1C4327"/>
<rect x="508.5" y="176.513" width="2" height="2" fill="#1C4327"/>
<rect x="14.5" y="202.513" width="2" height="2" fill="#1C4327"/>
<rect x="40.5" y="202.513" width="2" height="2" fill="#1C4327"/>
<rect x="66.5" y="202.513" width="2" height="2" fill="#1C4327"/>
<rect x="92.5" y="202.513" width="2" height="2" fill="#1C4327"/>
<rect x="118.5" y="202.513" width="2" height="2" fill="#1C4327"/>
<rect x="144.5" y="202.513" width="2" height="2" fill="#1C4327"/>
<rect x="170.5" y="202.513" width="2" height="2" fill="#1C4327"/>
<rect x="196.5" y="202.513" width="2" height="2" fill="#1C4327"/>
<rect x="222.5" y="202.513" width="2" height="2" fill="#1C4327"/>
<rect x="248.5" y="202.513" width="2" height="2" fill="#1C4327"/>
<rect x="274.5" y="202.513" width="2" height="2" fill="#1C4327"/>
<rect x="300.5" y="202.513" width="2" height="2" fill="#1C4327"/>
<rect x="326.5" y="202.513" width="2" height="2" fill="#1C4327"/>
<rect x="352.5" y="202.513" width="2" height="2" fill="#1C4327"/>
<rect x="378.5" y="202.513" width="2" height="2" fill="#1C4327"/>
<rect x="404.5" y="202.513" width="2" height="2" fill="#1C4327"/>
<rect x="430.5" y="202.513" width="2" height="2" fill="#1C4327"/>
<rect x="456.5" y="202.513" width="2" height="2" fill="#1C4327"/>
<rect x="482.5" y="202.513" width="2" height="2" fill="#1C4327"/>
<rect x="508.5" y="202.513" width="2" height="2" fill="#1C4327"/>
<rect x="14.5" y="228.513" width="2" height="2" fill="#1C4327"/>
<rect x="40.5" y="228.513" width="2" height="2" fill="#1C4327"/>
<rect x="66.5" y="228.513" width="2" height="2" fill="#1C4327"/>
<rect x="92.5" y="228.513" width="2" height="2" fill="#1C4327"/>
<rect x="118.5" y="228.513" width="2" height="2" fill="#1C4327"/>
<rect x="144.5" y="228.513" width="2" height="2" fill="#1C4327"/>
<rect x="170.5" y="228.513" width="2" height="2" fill="#1C4327"/>
<rect x="196.5" y="228.513" width="2" height="2" fill="#1C4327"/>
<rect x="222.5" y="228.513" width="2" height="2" fill="#1C4327"/>
<rect x="248.5" y="228.513" width="2" height="2" fill="#1C4327"/>
<rect x="274.5" y="228.513" width="2" height="2" fill="#1C4327"/>
<rect x="300.5" y="228.513" width="2" height="2" fill="#1C4327"/>
<rect x="326.5" y="228.513" width="2" height="2" fill="#1C4327"/>
<rect x="352.5" y="228.513" width="2" height="2" fill="#1C4327"/>
<rect x="378.5" y="228.513" width="2" height="2" fill="#1C4327"/>
<rect x="404.5" y="228.513" width="2" height="2" fill="#1C4327"/>
<rect x="430.5" y="228.513" width="2" height="2" fill="#1C4327"/>
<rect x="456.5" y="228.513" width="2" height="2" fill="#1C4327"/>
<rect x="482.5" y="228.513" width="2" height="2" fill="#1C4327"/>
<rect x="508.5" y="228.513" width="2" height="2" fill="#1C4327"/>
<rect x="14.5" y="254.513" width="2" height="2" fill="#1C4327"/>
<rect x="40.5" y="254.513" width="2" height="2" fill="#1C4327"/>
<rect x="66.5" y="254.513" width="2" height="2" fill="#1C4327"/>
<rect x="92.5" y="254.513" width="2" height="2" fill="#1C4327"/>
<rect x="118.5" y="254.513" width="2" height="2" fill="#1C4327"/>
<rect x="144.5" y="254.513" width="2" height="2" fill="#1C4327"/>
<rect x="170.5" y="254.513" width="2" height="2" fill="#1C4327"/>
<rect x="196.5" y="254.513" width="2" height="2" fill="#1C4327"/>
<rect x="222.5" y="254.513" width="2" height="2" fill="#1C4327"/>
<rect x="248.5" y="254.513" width="2" height="2" fill="#1C4327"/>
<rect x="274.5" y="254.513" width="2" height="2" fill="#1C4327"/>
<rect x="300.5" y="254.513" width="2" height="2" fill="#1C4327"/>
<rect x="326.5" y="254.513" width="2" height="2" fill="#1C4327"/>
<rect x="352.5" y="254.513" width="2" height="2" fill="#1C4327"/>
<rect x="378.5" y="254.513" width="2" height="2" fill="#1C4327"/>
<rect x="404.5" y="254.513" width="2" height="2" fill="#1C4327"/>
<rect x="430.5" y="254.513" width="2" height="2" fill="#1C4327"/>
<rect x="456.5" y="254.513" width="2" height="2" fill="#1C4327"/>
<rect x="482.5" y="254.513" width="2" height="2" fill="#1C4327"/>
<rect x="508.5" y="254.513" width="2" height="2" fill="#1C4327"/>
<rect x="14.5" y="280.513" width="2" height="2" fill="#1C4327"/>
<rect x="40.5" y="280.513" width="2" height="2" fill="#1C4327"/>
<rect x="66.5" y="280.513" width="2" height="2" fill="#1C4327"/>
<rect x="92.5" y="280.513" width="2" height="2" fill="#1C4327"/>
<rect x="118.5" y="280.513" width="2" height="2" fill="#1C4327"/>
<rect x="144.5" y="280.513" width="2" height="2" fill="#1C4327"/>
<rect x="170.5" y="280.513" width="2" height="2" fill="#1C4327"/>
<rect x="196.5" y="280.513" width="2" height="2" fill="#1C4327"/>
<rect x="222.5" y="280.513" width="2" height="2" fill="#1C4327"/>
<rect x="248.5" y="280.513" width="2" height="2" fill="#1C4327"/>
<rect x="274.5" y="280.513" width="2" height="2" fill="#1C4327"/>
<rect x="300.5" y="280.513" width="2" height="2" fill="#1C4327"/>
<rect x="326.5" y="280.513" width="2" height="2" fill="#1C4327"/>
<rect x="352.5" y="280.513" width="2" height="2" fill="#1C4327"/>
<rect x="378.5" y="280.513" width="2" height="2" fill="#1C4327"/>
<rect x="404.5" y="280.513" width="2" height="2" fill="#1C4327"/>
<rect x="430.5" y="280.513" width="2" height="2" fill="#1C4327"/>
<rect x="456.5" y="280.513" width="2" height="2" fill="#1C4327"/>
<rect x="482.5" y="280.513" width="2" height="2" fill="#1C4327"/>
<rect x="508.5" y="280.513" width="2" height="2" fill="#1C4327"/>
<rect x="14.5" y="306.513" width="2" height="2" fill="#1C4327"/>
<rect x="40.5" y="306.513" width="2" height="2" fill="#1C4327"/>
<rect x="66.5" y="306.513" width="2" height="2" fill="#1C4327"/>
<rect x="92.5" y="306.513" width="2" height="2" fill="#1C4327"/>
<rect x="118.5" y="306.513" width="2" height="2" fill="#1C4327"/>
<rect x="144.5" y="306.513" width="2" height="2" fill="#1C4327"/>
<rect x="170.5" y="306.513" width="2" height="2" fill="#1C4327"/>
<rect x="196.5" y="306.513" width="2" height="2" fill="#1C4327"/>
<rect x="222.5" y="306.513" width="2" height="2" fill="#1C4327"/>
<rect x="248.5" y="306.513" width="2" height="2" fill="#1C4327"/>
<rect x="274.5" y="306.513" width="2" height="2" fill="#1C4327"/>
<rect x="300.5" y="306.513" width="2" height="2" fill="#1C4327"/>
<rect x="326.5" y="306.513" width="2" height="2" fill="#1C4327"/>
<rect x="352.5" y="306.513" width="2" height="2" fill="#1C4327"/>
<rect x="378.5" y="306.513" width="2" height="2" fill="#1C4327"/>
<rect x="404.5" y="306.513" width="2" height="2" fill="#1C4327"/>
<rect x="430.5" y="306.513" width="2" height="2" fill="#1C4327"/>
<rect x="456.5" y="306.513" width="2" height="2" fill="#1C4327"/>
<rect x="482.5" y="306.513" width="2" height="2" fill="#1C4327"/>
<rect x="508.5" y="306.513" width="2" height="2" fill="#1C4327"/>
<rect x="14.5" y="332.513" width="2" height="2" fill="#1C4327"/>
<rect x="40.5" y="332.513" width="2" height="2" fill="#1C4327"/>
<rect x="66.5" y="332.513" width="2" height="2" fill="#1C4327"/>
<rect x="92.5" y="332.513" width="2" height="2" fill="#1C4327"/>
<rect x="118.5" y="332.513" width="2" height="2" fill="#1C4327"/>
<rect x="144.5" y="332.513" width="2" height="2" fill="#1C4327"/>
<rect x="170.5" y="332.513" width="2" height="2" fill="#1C4327"/>
<rect x="196.5" y="332.513" width="2" height="2" fill="#1C4327"/>
<rect x="222.5" y="332.513" width="2" height="2" fill="#1C4327"/>
<rect x="248.5" y="332.513" width="2" height="2" fill="#1C4327"/>
<rect x="274.5" y="332.513" width="2" height="2" fill="#1C4327"/>
<rect x="300.5" y="332.513" width="2" height="2" fill="#1C4327"/>
<rect x="326.5" y="332.513" width="2" height="2" fill="#1C4327"/>
<rect x="352.5" y="332.513" width="2" height="2" fill="#1C4327"/>
<rect x="378.5" y="332.513" width="2" height="2" fill="#1C4327"/>
<rect x="404.5" y="332.513" width="2" height="2" fill="#1C4327"/>
<rect x="430.5" y="332.513" width="2" height="2" fill="#1C4327"/>
<rect x="456.5" y="332.513" width="2" height="2" fill="#1C4327"/>
<rect x="482.5" y="332.513" width="2" height="2" fill="#1C4327"/>
<rect x="508.5" y="332.513" width="2" height="2" fill="#1C4327"/>
<rect x="14.5" y="358.513" width="2" height="2" fill="#1C4327"/>
<rect x="40.5" y="358.513" width="2" height="2" fill="#1C4327"/>
<rect x="66.5" y="358.513" width="2" height="2" fill="#1C4327"/>
<rect x="92.5" y="358.513" width="2" height="2" fill="#1C4327"/>
<rect x="118.5" y="358.513" width="2" height="2" fill="#1C4327"/>
<rect x="144.5" y="358.513" width="2" height="2" fill="#1C4327"/>
<rect x="170.5" y="358.513" width="2" height="2" fill="#1C4327"/>
<rect x="196.5" y="358.513" width="2" height="2" fill="#1C4327"/>
<rect x="222.5" y="358.513" width="2" height="2" fill="#1C4327"/>
<rect x="248.5" y="358.513" width="2" height="2" fill="#1C4327"/>
<rect x="274.5" y="358.513" width="2" height="2" fill="#1C4327"/>
<rect x="300.5" y="358.513" width="2" height="2" fill="#1C4327"/>
<rect x="326.5" y="358.513" width="2" height="2" fill="#1C4327"/>
<rect x="352.5" y="358.513" width="2" height="2" fill="#1C4327"/>
<rect x="378.5" y="358.513" width="2" height="2" fill="#1C4327"/>
<rect x="404.5" y="358.513" width="2" height="2" fill="#1C4327"/>
<rect x="430.5" y="358.513" width="2" height="2" fill="#1C4327"/>
<rect x="456.5" y="358.513" width="2" height="2" fill="#1C4327"/>
<rect x="482.5" y="358.513" width="2" height="2" fill="#1C4327"/>
<rect x="508.5" y="358.513" width="2" height="2" fill="#1C4327"/>
<rect x="14.5" y="384.513" width="2" height="2" fill="#1C4327"/>
<rect x="40.5" y="384.513" width="2" height="2" fill="#1C4327"/>
<rect x="66.5" y="384.513" width="2" height="2" fill="#1C4327"/>
<rect x="92.5" y="384.513" width="2" height="2" fill="#1C4327"/>
<rect x="118.5" y="384.513" width="2" height="2" fill="#1C4327"/>
<rect x="144.5" y="384.513" width="2" height="2" fill="#1C4327"/>
<rect x="170.5" y="384.513" width="2" height="2" fill="#1C4327"/>
<rect x="196.5" y="384.513" width="2" height="2" fill="#1C4327"/>
<rect x="222.5" y="384.513" width="2" height="2" fill="#1C4327"/>
<rect x="248.5" y="384.513" width="2" height="2" fill="#1C4327"/>
<rect x="274.5" y="384.513" width="2" height="2" fill="#1C4327"/>
<rect x="300.5" y="384.513" width="2" height="2" fill="#1C4327"/>
<rect x="326.5" y="384.513" width="2" height="2" fill="#1C4327"/>
<rect x="352.5" y="384.513" width="2" height="2" fill="#1C4327"/>
<rect x="378.5" y="384.513" width="2" height="2" fill="#1C4327"/>
<rect x="404.5" y="384.513" width="2" height="2" fill="#1C4327"/>
<rect x="430.5" y="384.513" width="2" height="2" fill="#1C4327"/>
<rect x="456.5" y="384.513" width="2" height="2" fill="#1C4327"/>
<rect x="482.5" y="384.513" width="2" height="2" fill="#1C4327"/>
<rect x="508.5" y="384.513" width="2" height="2" fill="#1C4327"/>
<rect x="14.5" y="410.513" width="2" height="2" fill="#1C4327"/>
<rect x="40.5" y="410.513" width="2" height="2" fill="#1C4327"/>
<rect x="66.5" y="410.513" width="2" height="2" fill="#1C4327"/>
<rect x="92.5" y="410.513" width="2" height="2" fill="#1C4327"/>
<rect x="118.5" y="410.513" width="2" height="2" fill="#1C4327"/>
<rect x="144.5" y="410.513" width="2" height="2" fill="#1C4327"/>
<rect x="170.5" y="410.513" width="2" height="2" fill="#1C4327"/>
<rect x="196.5" y="410.513" width="2" height="2" fill="#1C4327"/>
<rect x="222.5" y="410.513" width="2" height="2" fill="#1C4327"/>
<rect x="248.5" y="410.513" width="2" height="2" fill="#1C4327"/>
<rect x="274.5" y="410.513" width="2" height="2" fill="#1C4327"/>
<rect x="300.5" y="410.513" width="2" height="2" fill="#1C4327"/>
<rect x="326.5" y="410.513" width="2" height="2" fill="#1C4327"/>
<rect x="352.5" y="410.513" width="2" height="2" fill="#1C4327"/>
<rect x="378.5" y="410.513" width="2" height="2" fill="#1C4327"/>
<rect x="404.5" y="410.513" width="2" height="2" fill="#1C4327"/>
<rect x="430.5" y="410.513" width="2" height="2" fill="#1C4327"/>
<rect x="456.5" y="410.513" width="2" height="2" fill="#1C4327"/>
<rect x="482.5" y="410.513" width="2" height="2" fill="#1C4327"/>
<rect x="508.5" y="410.513" width="2" height="2" fill="#1C4327"/>
<rect x="14.5" y="436.513" width="2" height="2" fill="#1C4327"/>
<rect x="40.5" y="436.513" width="2" height="2" fill="#1C4327"/>
<rect x="66.5" y="436.513" width="2" height="2" fill="#1C4327"/>
<rect x="92.5" y="436.513" width="2" height="2" fill="#1C4327"/>
<rect x="118.5" y="436.513" width="2" height="2" fill="#1C4327"/>
<rect x="144.5" y="436.513" width="2" height="2" fill="#1C4327"/>
<rect x="170.5" y="436.513" width="2" height="2" fill="#1C4327"/>
<rect x="196.5" y="436.513" width="2" height="2" fill="#1C4327"/>
<rect x="222.5" y="436.513" width="2" height="2" fill="#1C4327"/>
<rect x="248.5" y="436.513" width="2" height="2" fill="#1C4327"/>
<rect x="274.5" y="436.513" width="2" height="2" fill="#1C4327"/>
<rect x="300.5" y="436.513" width="2" height="2" fill="#1C4327"/>
<rect x="326.5" y="436.513" width="2" height="2" fill="#1C4327"/>
<rect x="352.5" y="436.513" width="2" height="2" fill="#1C4327"/>
<rect x="378.5" y="436.513" width="2" height="2" fill="#1C4327"/>
<rect x="404.5" y="436.513" width="2" height="2" fill="#1C4327"/>
<rect x="430.5" y="436.513" width="2" height="2" fill="#1C4327"/>
<rect x="456.5" y="436.513" width="2" height="2" fill="#1C4327"/>
<rect x="482.5" y="436.513" width="2" height="2" fill="#1C4327"/>
<rect x="508.5" y="436.513" width="2" height="2" fill="#1C4327"/>
<rect x="14.5" y="462.513" width="2" height="2" fill="#1C4327"/>
<rect x="40.5" y="462.513" width="2" height="2" fill="#1C4327"/>
<rect x="66.5" y="462.513" width="2" height="2" fill="#1C4327"/>
<rect x="92.5" y="462.513" width="2" height="2" fill="#1C4327"/>
<rect x="118.5" y="462.513" width="2" height="2" fill="#1C4327"/>
<rect x="144.5" y="462.513" width="2" height="2" fill="#1C4327"/>
<rect x="170.5" y="462.513" width="2" height="2" fill="#1C4327"/>
<rect x="196.5" y="462.513" width="2" height="2" fill="#1C4327"/>
<rect x="222.5" y="462.513" width="2" height="2" fill="#1C4327"/>
<rect x="248.5" y="462.513" width="2" height="2" fill="#1C4327"/>
<rect x="274.5" y="462.513" width="2" height="2" fill="#1C4327"/>
<rect x="300.5" y="462.513" width="2" height="2" fill="#1C4327"/>
<rect x="326.5" y="462.513" width="2" height="2" fill="#1C4327"/>
<rect x="352.5" y="462.513" width="2" height="2" fill="#1C4327"/>
<rect x="378.5" y="462.513" width="2" height="2" fill="#1C4327"/>
<rect x="404.5" y="462.513" width="2" height="2" fill="#1C4327"/>
<rect x="430.5" y="462.513" width="2" height="2" fill="#1C4327"/>
<rect x="456.5" y="462.513" width="2" height="2" fill="#1C4327"/>
<rect x="482.5" y="462.513" width="2" height="2" fill="#1C4327"/>
<rect x="508.5" y="462.513" width="2" height="2" fill="#1C4327"/>
<rect x="14.5" y="488.513" width="2" height="2" fill="#1C4327"/>
<rect x="40.5" y="488.513" width="2" height="2" fill="#1C4327"/>
<rect x="66.5" y="488.513" width="2" height="2" fill="#1C4327"/>
<rect x="92.5" y="488.513" width="2" height="2" fill="#1C4327"/>
<rect x="118.5" y="488.513" width="2" height="2" fill="#1C4327"/>
<rect x="144.5" y="488.513" width="2" height="2" fill="#1C4327"/>
<rect x="170.5" y="488.513" width="2" height="2" fill="#1C4327"/>
<rect x="196.5" y="488.513" width="2" height="2" fill="#1C4327"/>
<rect x="222.5" y="488.513" width="2" height="2" fill="#1C4327"/>
<rect x="248.5" y="488.513" width="2" height="2" fill="#1C4327"/>
<rect x="274.5" y="488.513" width="2" height="2" fill="#1C4327"/>
<rect x="300.5" y="488.513" width="2" height="2" fill="#1C4327"/>
<rect x="326.5" y="488.513" width="2" height="2" fill="#1C4327"/>
<rect x="352.5" y="488.513" width="2" height="2" fill="#1C4327"/>
<rect x="378.5" y="488.513" width="2" height="2" fill="#1C4327"/>
<rect x="404.5" y="488.513" width="2" height="2" fill="#1C4327"/>
<rect x="430.5" y="488.513" width="2" height="2" fill="#1C4327"/>
<rect x="456.5" y="488.513" width="2" height="2" fill="#1C4327"/>
<rect x="482.5" y="488.513" width="2" height="2" fill="#1C4327"/>
<rect x="508.5" y="488.513" width="2" height="2" fill="#1C4327"/>
<rect x="14.5" y="514.513" width="2" height="2" fill="#1C4327"/>
<rect x="40.5" y="514.513" width="2" height="2" fill="#1C4327"/>
<rect x="66.5" y="514.513" width="2" height="2" fill="#1C4327"/>
<rect x="92.5" y="514.513" width="2" height="2" fill="#1C4327"/>
<rect x="118.5" y="514.513" width="2" height="2" fill="#1C4327"/>
<rect x="144.5" y="514.513" width="2" height="2" fill="#1C4327"/>
<rect x="170.5" y="514.513" width="2" height="2" fill="#1C4327"/>
<rect x="196.5" y="514.513" width="2" height="2" fill="#1C4327"/>
<rect x="222.5" y="514.513" width="2" height="2" fill="#1C4327"/>
<rect x="248.5" y="514.513" width="2" height="2" fill="#1C4327"/>
<rect x="274.5" y="514.513" width="2" height="2" fill="#1C4327"/>
<rect x="300.5" y="514.513" width="2" height="2" fill="#1C4327"/>
<rect x="326.5" y="514.513" width="2" height="2" fill="#1C4327"/>
<rect x="352.5" y="514.513" width="2" height="2" fill="#1C4327"/>
<rect x="378.5" y="514.513" width="2" height="2" fill="#1C4327"/>
<rect x="404.5" y="514.513" width="2" height="2" fill="#1C4327"/>
<rect x="430.5" y="514.513" width="2" height="2" fill="#1C4327"/>
<rect x="456.5" y="514.513" width="2" height="2" fill="#1C4327"/>
<rect x="482.5" y="514.513" width="2" height="2" fill="#1C4327"/>
<rect x="508.5" y="514.513" width="2" height="2" fill="#1C4327"/>
<rect x="14.5" y="540.513" width="2" height="2" fill="#1C4327"/>
<rect x="40.5" y="540.513" width="2" height="2" fill="#1C4327"/>
<rect x="66.5" y="540.513" width="2" height="2" fill="#1C4327"/>
<rect x="92.5" y="540.513" width="2" height="2" fill="#1C4327"/>
<rect x="118.5" y="540.513" width="2" height="2" fill="#1C4327"/>
<rect x="144.5" y="540.513" width="2" height="2" fill="#1C4327"/>
<rect x="170.5" y="540.513" width="2" height="2" fill="#1C4327"/>
<rect x="196.5" y="540.513" width="2" height="2" fill="#1C4327"/>
<rect x="222.5" y="540.513" width="2" height="2" fill="#1C4327"/>
<rect x="248.5" y="540.513" width="2" height="2" fill="#1C4327"/>
<rect x="274.5" y="540.513" width="2" height="2" fill="#1C4327"/>
<rect x="300.5" y="540.513" width="2" height="2" fill="#1C4327"/>
<rect x="326.5" y="540.513" width="2" height="2" fill="#1C4327"/>
<rect x="352.5" y="540.513" width="2" height="2" fill="#1C4327"/>
<rect x="378.5" y="540.513" width="2" height="2" fill="#1C4327"/>
<rect x="404.5" y="540.513" width="2" height="2" fill="#1C4327"/>
<rect x="430.5" y="540.513" width="2" height="2" fill="#1C4327"/>
<rect x="456.5" y="540.513" width="2" height="2" fill="#1C4327"/>
<rect x="482.5" y="540.513" width="2" height="2" fill="#1C4327"/>
<rect x="508.5" y="540.513" width="2" height="2" fill="#1C4327"/>
<rect x="14.5" y="566.513" width="2" height="2" fill="#1C4327"/>
<rect x="40.5" y="566.513" width="2" height="2" fill="#1C4327"/>
<rect x="66.5" y="566.513" width="2" height="2" fill="#1C4327"/>
<rect x="92.5" y="566.513" width="2" height="2" fill="#1C4327"/>
<rect x="118.5" y="566.513" width="2" height="2" fill="#1C4327"/>
<rect x="144.5" y="566.513" width="2" height="2" fill="#1C4327"/>
<rect x="170.5" y="566.513" width="2" height="2" fill="#1C4327"/>
<rect x="196.5" y="566.513" width="2" height="2" fill="#1C4327"/>
<rect x="222.5" y="566.513" width="2" height="2" fill="#1C4327"/>
<rect x="248.5" y="566.513" width="2" height="2" fill="#1C4327"/>
<rect x="274.5" y="566.513" width="2" height="2" fill="#1C4327"/>
<rect x="300.5" y="566.513" width="2" height="2" fill="#1C4327"/>
<rect x="326.5" y="566.513" width="2" height="2" fill="#1C4327"/>
<rect x="352.5" y="566.513" width="2" height="2" fill="#1C4327"/>
<rect x="378.5" y="566.513" width="2" height="2" fill="#1C4327"/>
<rect x="404.5" y="566.513" width="2" height="2" fill="#1C4327"/>
<rect x="430.5" y="566.513" width="2" height="2" fill="#1C4327"/>
<rect x="456.5" y="566.513" width="2" height="2" fill="#1C4327"/>
<rect x="482.5" y="566.513" width="2" height="2" fill="#1C4327"/>
<rect x="508.5" y="566.513" width="2" height="2" fill="#1C4327"/>
</g>
<defs>
<clipPath id="clip0_432_11669">
<rect y="0.512695" width="525" height="588" rx="8" fill="white"/>
</clipPath>
</defs>
</svg>
