<svg width="24" height="24" viewBox="0 0 24 24" fill="none" xmlns="http://www.w3.org/2000/svg">
<path d="M19.6148 5.3297C18.2214 4.70986 16.7128 4.25998 15.1413 4.00005C15.1275 3.99963 15.1138 4.00209 15.1012 4.00727C15.0885 4.01246 15.0772 4.02023 15.068 4.03004C14.8794 4.35995 14.6594 4.78984 14.5127 5.11975C12.8459 4.87982 11.1508 4.87982 9.48403 5.11975C9.33735 4.77984 9.11735 4.35995 8.91829 4.03004C8.90782 4.01004 8.87639 4.00005 8.84496 4.00005C7.27349 4.25998 5.77535 4.70986 4.3715 5.3297C4.36103 5.3297 4.35055 5.3397 4.34007 5.34969C1.49047 9.41863 0.704735 13.3776 1.09236 17.2966C1.09236 17.3166 1.10284 17.3366 1.12379 17.3466C3.00956 18.6662 4.82199 19.466 6.61347 19.9959C6.6449 20.0059 6.67633 19.9959 6.6868 19.9759C7.10586 19.426 7.48302 18.8462 7.80779 18.2363C7.82874 18.1963 7.80779 18.1563 7.76588 18.1463C7.16872 17.9264 6.60299 17.6665 6.04774 17.3665C6.00583 17.3466 6.00583 17.2866 6.03726 17.2566C6.1525 17.1766 6.26775 17.0866 6.38299 17.0066C6.40394 16.9866 6.43537 16.9866 6.45632 16.9966C10.0602 18.5662 13.947 18.5662 17.509 16.9966C17.53 16.9866 17.5614 16.9866 17.5823 17.0066C17.6976 17.0966 17.8128 17.1766 17.9281 17.2666C17.97 17.2966 17.97 17.3565 17.9176 17.3765C17.3728 17.6865 16.7966 17.9364 16.1994 18.1563C16.1575 18.1663 16.1471 18.2163 16.1575 18.2463C16.4928 18.8562 16.8699 19.436 17.2785 19.9859C17.31 19.9959 17.3414 20.0059 17.3728 19.9959C19.1748 19.466 20.9872 18.6662 22.873 17.3466C22.8939 17.3366 22.9044 17.3166 22.9044 17.2966C23.3654 12.7677 22.1396 8.83878 19.6567 5.34969C19.6462 5.3397 19.6357 5.3297 19.6148 5.3297ZM8.35256 14.9072C7.27349 14.9072 6.37251 13.9574 6.37251 12.7877C6.37251 11.6181 7.25253 10.6683 8.35256 10.6683C9.46307 10.6683 10.3431 11.628 10.3326 12.7877C10.3326 13.9574 9.45259 14.9072 8.35256 14.9072ZM15.6547 14.9072C14.5756 14.9072 13.6746 13.9574 13.6746 12.7877C13.6746 11.6181 14.5546 10.6683 15.6547 10.6683C16.7652 10.6683 17.6452 11.628 17.6347 12.7877C17.6347 13.9574 16.7652 14.9072 15.6547 14.9072Z" fill="#49B267"/>
</svg>
