<?xml version="1.0" standalone="no"?>
<!DOCTYPE svg PUBLIC "-//W3C//DTD SVG 20010904//EN"
 "http://www.w3.org/TR/2001/REC-SVG-20010904/DTD/svg10.dtd">
<svg version="1.0" xmlns="http://www.w3.org/2000/svg"
 width="300.000000pt" height="300.000000pt" viewBox="0 0 300.000000 300.000000"
 preserveAspectRatio="xMidYMid meet">
<metadata>
Created by potrace 1.10, written by Peter Selinger 2001-2011
</metadata>
<g transform="translate(0.000000,300.000000) scale(0.100000,-0.100000)"
fill="#000000" stroke="none">
<path d="M1717 2969 c-15 -17 -27 -37 -27 -45 0 -8 -5 -14 -10 -14 -5 0 -9 -3
-8 -7 3 -16 -25 -103 -36 -112 -8 -7 -24 -7 -47 -1 -36 10 -83 6 -134 -12 -31
-12 -105 -82 -105 -100 0 -5 -7 -16 -15 -24 -8 -9 -15 -24 -15 -35 0 -10 -6
-19 -12 -20 -68 -4 -134 -37 -181 -89 -44 -48 -151 -273 -184 -386 -17 -55
-12 -133 10 -157 7 -7 18 -22 25 -32 7 -11 21 -33 32 -50 11 -16 20 -35 20
-41 0 -6 -21 -19 -47 -29 -27 -10 -60 -27 -75 -37 l-28 -19 -53 54 c-45 47
-60 56 -107 65 -30 6 -99 10 -154 9 -95 -1 -99 -2 -120 -30 -11 -15 -30 -39
-41 -53 l-20 -25 -45 20 c-34 16 -66 21 -131 21 -99 0 -132 -17 -144 -73 -4
-17 -19 -70 -33 -117 -14 -47 -27 -110 -30 -141 -3 -52 -2 -56 23 -67 14 -7
50 -12 80 -12 l54 0 -6 -54 c-5 -46 -2 -58 15 -76 17 -18 19 -26 9 -41 -7 -11
-15 -19 -18 -19 -12 0 -44 -35 -61 -67 -24 -41 -23 -75 2 -96 18 -15 45 -17
233 -16 116 1 222 5 234 10 12 5 23 4 25 -2 2 -5 59 -9 133 -8 322 2 380 -3
357 -36 -9 -13 -78 -45 -97 -45 -8 0 -24 -9 -36 -21 -18 -18 -20 -28 -14 -84
11 -100 6 -110 -56 -112 -60 -3 -75 -13 -84 -56 -16 -79 -18 -80 -63 -38 -22
22 -36 28 -54 24 -22 -6 -68 -35 -96 -61 -18 -16 -22 -16 -50 11 l-24 22 22
-37 c22 -37 17 -50 -9 -25 -11 10 -11 8 -2 -10 39 -75 196 -107 313 -63 126
47 257 189 315 339 20 53 49 122 65 154 26 53 31 57 63 57 25 0 39 6 50 24 13
19 22 22 52 19 22 -2 42 -12 50 -23 12 -16 26 -20 79 -20 60 0 64 1 63 23 -1
50 -46 308 -55 317 -6 6 0 -54 13 -133 31 -201 34 -187 -32 -187 -48 0 -55 2
-55 20 0 18 -7 20 -60 20 -49 0 -61 -3 -70 -20 -9 -17 -21 -20 -72 -20 -52 0
-59 -2 -48 -15 9 -11 9 -22 -1 -50 -7 -19 -16 -35 -20 -35 -7 0 -59 65 -59 74
0 3 11 6 24 6 20 0 26 7 35 46 6 25 8 50 4 57 -4 7 -12 -7 -18 -33 l-11 -45
-127 -5 c-77 -3 -127 -1 -127 4 0 6 18 78 41 160 l41 151 51 0 c55 0 77 -9 77
-28 0 -8 -4 -7 -9 2 -8 13 -26 -36 -67 -181 -4 -15 1 -18 31 -18 l36 0 -16 31
c-22 42 -7 59 55 59 40 0 49 3 53 21 5 19 10 20 49 14 24 -4 51 -12 61 -17 21
-11 25 -7 79 75 17 26 37 47 44 47 6 0 14 7 18 15 3 8 14 15 24 15 28 0 44 24
50 77 6 53 37 113 58 113 8 0 41 9 74 20 l60 20 42 -32 c55 -42 145 -83 245
-110 62 -17 107 -22 221 -22 139 -1 142 -1 142 -23 0 -29 10 -53 22 -53 5 0 7
8 4 18 -19 66 -19 69 15 81 18 6 33 10 34 9 1 -2 7 -28 13 -58 40 -197 42
-608 3 -753 -70 -261 -251 -413 -549 -461 -75 -12 -83 -12 -80 2 2 11 26 22
73 33 253 59 408 204 483 449 37 120 45 210 39 407 -4 147 -2 192 9 219 9 20
10 34 4 34 -5 0 -10 -9 -10 -20 0 -12 -5 -17 -14 -14 -17 7 -27 -49 -15 -91
12 -40 11 -313 -1 -396 -14 -96 -54 -214 -97 -288 -84 -143 -245 -254 -416
-286 l-37 -7 21 48 c16 36 23 76 27 147 4 94 3 100 -27 162 -50 102 -146 168
-261 179 l-55 5 50 -13 c76 -19 126 -46 171 -91 115 -115 124 -272 26 -458
-36 -70 -58 -87 -108 -87 -13 0 -24 -5 -24 -11 0 -8 19 -10 64 -5 50 5 72 3
101 -11 21 -10 34 -22 31 -30 -4 -9 5 -13 29 -13 24 0 45 -9 70 -31 59 -52 40
-70 -24 -21 -20 15 -49 33 -64 40 -35 15 -87 16 -87 1 0 -5 6 -7 13 -3 8 5 8
2 -2 -9 -7 -9 -23 -17 -35 -17 -17 0 -18 2 -6 10 13 8 12 10 -2 10 -20 0 -58
-34 -58 -51 0 -5 4 -8 9 -4 6 3 9 -4 8 -16 -1 -21 -4 -21 -152 -17 -82 2 -136
1 -120 -3 51 -11 414 -9 385 2 -14 6 -39 9 -57 7 -17 -2 -30 -1 -27 3 2 4 -2
9 -8 12 -20 6 10 37 36 37 26 0 85 -35 92 -55 5 -11 21 -15 60 -15 43 0 56 4
68 22 32 45 21 73 -48 125 -63 47 -64 48 -38 55 15 4 47 9 72 10 l45 3 5 -50
c3 -27 12 -60 20 -72 15 -23 70 -49 70 -33 0 4 -13 13 -29 18 -42 15 -54 45
-48 114 3 32 2 58 -1 58 -4 -1 -34 -7 -67 -15 -61 -15 -184 -21 -172 -8 4 3
35 8 69 10 35 1 86 8 113 15 28 6 61 11 75 10 13 -1 62 17 110 40 146 73 261
209 313 373 9 28 19 105 22 175 3 69 10 142 16 163 9 36 5 207 -7 286 l-5 34
40 -6 c22 -2 76 -23 120 -46 44 -23 86 -41 93 -41 7 0 -29 20 -79 45 -51 25
-93 48 -93 50 0 6 108 -42 135 -59 11 -8 59 -17 105 -21 98 -8 140 -32 161
-90 7 -19 17 -35 21 -35 11 0 -19 70 -40 93 -24 26 -65 42 -156 57 -44 7 -100
24 -125 37 -25 12 -51 23 -58 23 -21 0 -26 20 -28 109 -1 47 -7 108 -14 135
-11 40 -11 50 0 57 8 5 11 9 6 9 -4 0 -1 10 7 23 8 12 17 43 21 68 8 55 11 59
54 86 32 20 49 43 97 128 53 93 57 229 11 320 -29 57 -30 119 -4 230 31 130
17 324 -29 389 -58 84 -164 71 -264 -34 -32 -33 -65 -60 -73 -60 -9 0 -42 7
-74 15 -37 10 -101 16 -175 16 l-117 -1 -30 43 c-16 23 -47 61 -69 85 l-40 42
-74 0 c-70 0 -75 -2 -101 -31z m162 -19 c23 -17 60 -59 81 -92 l39 -62 -53
-21 c-29 -12 -69 -32 -89 -44 -47 -29 -143 -133 -165 -179 l-17 -37 -3 89 c-6
195 60 376 137 376 16 0 47 -14 70 -30z m823 -78 c37 -63 47 -197 27 -339 -14
-96 -25 -120 -34 -78 -22 95 -139 240 -228 284 l-42 21 71 68 c98 97 167 111
206 44z m-376 -102 c43 -11 103 -35 132 -53 113 -68 210 -206 234 -335 6 -31
23 -86 38 -122 31 -72 44 -137 29 -145 -5 -4 -10 0 -11 7 -1 7 -4 -23 -7 -67
-3 -44 -3 -81 1 -83 10 -5 -2 -32 -14 -32 -5 0 -6 4 -3 10 3 5 -1 22 -9 37
l-15 28 -1 -33 c0 -38 -29 -99 -59 -126 -21 -19 -21 -19 -21 10 -1 27 -2 27
-12 9 -29 -54 -101 -111 -151 -121 -149 -29 -378 -24 -512 11 -127 33 -238
106 -269 178 -14 31 -14 31 -16 7 -1 -23 -2 -24 -14 -7 -35 46 -47 387 -14
424 8 10 25 46 38 81 59 163 170 272 330 323 78 25 224 25 326 -1z m-702 -9
c11 -10 12 -19 4 -44 -6 -18 -12 -97 -13 -177 -1 -80 -7 -157 -13 -172 -6 -15
-14 -56 -18 -91 -6 -60 -8 -64 -45 -85 -36 -21 -38 -24 -28 -49 10 -27 -1 -45
-33 -55 -5 -2 -5 -15 2 -32 9 -25 8 -31 -10 -43 -12 -9 -19 -24 -19 -41 2 -27
2 -27 6 -2 3 13 13 30 24 38 13 9 17 20 13 41 -5 23 -2 32 16 41 17 9 21 18
18 42 -4 23 0 33 19 45 28 19 46 7 20 -12 -14 -10 -17 -21 -12 -49 4 -20 11
-36 16 -36 5 0 9 -12 9 -26 0 -14 4 -23 10 -19 12 7 12 3 4 -19 -3 -9 -10 -16
-15 -16 -12 0 -37 53 -32 68 7 17 -16 15 -23 -3 -8 -20 40 -100 76 -127 24
-17 27 -25 19 -40 -9 -17 -8 -18 10 -6 29 18 54 1 65 -45 9 -34 12 -37 47 -37
29 0 44 -7 66 -30 21 -23 37 -30 64 -30 21 0 47 -8 60 -19 19 -15 34 -18 70
-14 34 4 53 1 73 -12 23 -15 32 -16 66 -6 33 10 45 9 71 -4 28 -15 34 -15 72
0 28 11 55 14 87 10 36 -5 49 -3 59 9 9 11 30 16 62 16 42 0 49 3 61 27 20 41
38 41 38 -1 0 -35 -33 -121 -51 -132 -5 -3 -1 -20 8 -37 19 -36 28 -183 13
-207 -8 -12 -10 -11 -10 5 -1 15 -5 11 -15 -12 -19 -45 -43 -43 -50 5 -3 20
-12 66 -20 102 l-13 65 34 28 c19 16 32 32 29 37 -3 4 2 13 10 20 8 7 15 16
15 20 0 4 -18 -10 -41 -32 -23 -22 -67 -52 -98 -66 -52 -25 -65 -27 -196 -26
-170 0 -243 16 -375 81 -65 32 -113 65 -152 103 -60 58 -81 60 -27 2 17 -18
28 -36 25 -40 -4 -3 -37 -11 -74 -18 -59 -10 -69 -9 -80 5 -11 14 -10 17 9 21
16 4 27 19 37 49 22 65 12 70 -138 71 -168 2 -175 0 -186 -58 l-10 -47 -16 36
c-9 20 -21 40 -27 43 -6 4 -9 12 -5 17 3 6 -3 5 -14 -2 -20 -13 -20 -14 10
-32 l31 -19 -34 -34 -35 -35 -39 17 c-72 30 -145 -11 -145 -83 0 -41 23 -63
65 -63 25 0 34 5 38 21 5 19 2 21 -24 17 -32 -5 -32 -5 -23 41 l7 31 84 0 c81
0 84 -1 78 -21 -4 -12 -15 -51 -26 -87 -10 -36 -24 -69 -31 -73 -7 -5 -35 -13
-62 -19 -74 -16 -148 3 -189 48 -16 17 -16 25 -6 66 6 26 9 67 6 91 -4 42 -2
47 33 79 48 43 98 59 169 54 l56 -4 -27 29 c-14 16 -34 46 -45 66 -24 48 -44
72 -55 65 -4 -3 -8 -2 -7 3 1 4 -5 25 -14 45 -25 55 -21 94 19 183 20 44 55
125 80 179 44 101 75 144 129 177 17 11 25 19 20 19 -22 0 -86 -53 -108 -88
-13 -20 -42 -81 -66 -135 -24 -53 -46 -95 -49 -93 -2 3 5 26 17 50 11 25 33
75 47 111 40 100 114 167 200 180 33 5 41 3 52 -15 11 -17 10 -26 -5 -50 -9
-17 -21 -30 -25 -30 -4 0 -8 -6 -8 -12 0 -7 16 4 35 24 30 33 35 44 34 85 0
36 -3 43 -9 28 -7 -17 -9 -15 -9 13 -1 19 5 35 13 38 8 3 19 17 25 32 12 30
63 68 107 82 37 12 119 6 138 -9z m-635 -593 c-11 -29 -25 -71 -30 -93 -8 -38
-8 -37 -4 11 5 45 38 134 50 134 3 0 -5 -24 -16 -52z m-462 -334 c16 -25 16
-27 -3 -40 -10 -8 -31 -26 -46 -39 -24 -23 -27 -23 -31 -8 -3 10 -5 2 -6 -17
-1 -19 -10 -48 -21 -65 -24 -37 -25 -66 -4 -108 16 -30 74 -95 74 -83 0 4 13
0 30 -9 48 -25 122 -21 184 9 63 31 89 64 87 115 -1 20 -2 72 -2 116 -1 78 -2
79 -11 35 -9 -37 -12 -41 -18 -25 -4 11 -22 33 -39 49 l-31 30 22 23 c29 31
39 29 77 -14 50 -57 64 -92 64 -158 -1 -104 -59 -191 -158 -236 -89 -41 -240
-12 -293 55 -30 39 -44 116 -32 172 13 55 46 123 64 130 8 3 17 19 20 36 12
61 44 75 73 32z m186 9 c4 -3 0 -14 -9 -24 -14 -15 -27 -17 -83 -12 -69 6 -88
14 -77 32 8 12 158 16 169 4z m-11 -78 c27 -18 42 -39 57 -80 12 -31 21 -68
21 -83 0 -36 -21 -82 -37 -82 -7 0 -13 -4 -13 -9 0 -17 -69 -41 -119 -41 -97
0 -175 53 -186 126 -4 32 1 50 27 98 58 105 155 132 250 71z m-421 15 c33 -6
63 -20 78 -34 l23 -24 -17 -52 c-12 -35 -16 -68 -12 -100 6 -53 0 -63 -63 -96
-25 -13 -67 -19 -150 -22 -72 -4 -106 -8 -90 -13 23 -6 23 -7 3 -8 -12 -1 -24
3 -28 8 -3 5 16 86 42 180 l47 171 57 0 c31 0 81 -5 110 -10z m1273 -25 c-12
-58 -15 -60 -104 -56 -80 3 -99 -3 -100 -31 0 -5 36 -8 80 -8 44 0 80 -4 80
-9 0 -5 -3 -22 -6 -39 l-6 -31 -87 -3 c-72 -3 -86 -6 -89 -20 -3 -16 6 -18 87
-18 l90 0 -13 -42 -12 -43 -147 -5 c-129 -4 -147 -3 -143 10 22 69 33 123 29
140 -3 12 1 26 9 33 8 7 23 41 33 77 10 36 20 67 21 70 1 3 66 5 143 5 l141 0
-6 -30z m-117 -202 c-20 -2 -52 -2 -70 0 -17 2 0 4 38 4 39 0 53 -2 32 -4z
m-603 -75 c-13 -24 -47 -58 -58 -58 -5 0 5 16 24 35 35 37 46 44 34 23z m67
-43 c28 -18 39 -31 35 -43 -3 -9 -12 -44 -21 -77 -30 -112 -31 -113 -77 -109
-23 2 -43 6 -46 9 -3 3 3 33 12 68 9 34 16 81 15 104 -3 39 13 73 32 73 5 0
28 -11 50 -25z m499 -2 c0 -9 -56 -103 -62 -103 -7 0 -88 90 -88 99 0 3 34 6
75 6 41 0 75 -1 75 -2z m-207 -15 c12 -7 28 -21 35 -30 7 -9 19 -24 28 -32 13
-14 12 -16 -13 -21 -15 -3 -47 -11 -70 -17 -60 -15 -73 -7 -63 36 4 19 5 37 2
40 -9 10 20 36 39 36 11 0 29 -6 42 -12z m-715 -33 c2 -2 1 -17 -3 -34 -5 -22
-29 -49 -88 -98 -126 -103 -123 -96 -39 -90 78 5 81 2 62 -49 -8 -20 -8 -29 2
-35 7 -4 9 -11 5 -16 -5 -4 -12 -2 -16 6 -6 9 -43 12 -154 9 -162 -3 -151 -8
-127 58 5 11 49 54 99 94 50 41 91 75 91 77 0 2 -25 3 -56 3 -34 0 -53 -4 -49
-10 7 -12 -5 -13 -23 -2 -9 6 -10 16 -1 43 6 19 12 39 14 44 2 9 274 10 283 0z
m322 0 c10 -12 10 -15 -2 -15 -11 0 -23 -29 -42 -95 -14 -52 -26 -97 -26 -100
0 -3 33 -5 74 -5 l75 0 -15 -44 -15 -45 -127 -3 c-70 -2 -128 -3 -129 -3 0 0
18 68 41 150 l43 150 44 12 c59 15 65 15 79 -2z m-194 -21 c20 7 18 0 -21
-147 -28 -101 -33 -132 -23 -138 7 -4 9 -12 4 -16 -5 -4 -11 -2 -13 5 -3 7
-24 12 -54 12 -37 0 -48 -3 -43 -12 5 -10 4 -10 -6 -1 -10 9 -4 42 30 161 l42
150 35 -10 c19 -5 41 -7 49 -4z m538 -424 c20 -20 -92 -244 -119 -237 -5 2
-21 24 -35 50 -20 38 -22 49 -12 56 12 7 11 14 -2 39 -27 52 -22 71 23 78 22
4 42 13 45 21 5 11 16 13 49 8 23 -4 46 -11 51 -15z m-171 -241 l42 -22 -45
-39 c-54 -48 -129 -98 -147 -98 -14 0 -19 61 -5 74 4 4 7 27 7 49 l0 42 43 -2
c23 -1 42 2 42 8 0 14 17 11 63 -12z m-262 -71 c7 -13 25 -35 41 -50 47 -44
38 -58 -36 -58 -69 0 -126 15 -126 34 0 18 30 56 44 56 7 0 21 9 31 20 23 26
32 25 46 -2z m1137 -448 c17 -11 32 -25 32 -31 0 -9 -59 20 -84 43 -19 16 19
8 52 -12z m55 -119 c16 -16 28 -34 25 -41 -3 -9 -8 -9 -19 3 -9 8 -34 20 -55
26 -51 14 -68 26 -59 41 13 20 76 4 108 -29z"/>
<path d="M1795 2879 c-24 -12 -55 -77 -55 -114 0 -14 -4 -25 -10 -25 -5 0 -10
-16 -10 -36 0 -24 4 -34 12 -32 13 5 20 33 33 122 4 33 15 56 32 72 28 26 28
28 -2 13z"/>
<path d="M1839 2879 c-10 -6 -10 -9 -2 -9 7 0 25 -14 40 -30 14 -17 28 -28 31
-25 3 2 -9 20 -25 39 -22 24 -35 31 -44 25z"/>
<path d="M2600 2831 c0 -5 -8 -12 -19 -16 -21 -6 -81 -55 -68 -55 13 0 97 62
97 72 0 4 -2 8 -5 8 -3 0 -5 -4 -5 -9z"/>
<path d="M2647 2794 c13 -21 16 -47 15 -122 -1 -76 1 -93 11 -83 32 32 8 211
-30 225 -9 4 -8 -3 4 -20z"/>
<path d="M1882 2579 c-25 -13 -48 -32 -53 -47 -15 -38 -3 -38 34 2 31 33 39
36 89 36 44 0 59 -4 76 -23 21 -22 29 -66 16 -80 -3 -3 -18 -1 -33 5 -38 15
-161 22 -161 9 0 -11 5 -13 55 -16 17 -1 58 -5 92 -10 l62 -7 6 35 c9 48 -1
74 -36 93 -50 26 -99 26 -147 3z"/>
<path d="M2344 2533 c-65 -59 -44 -113 45 -113 26 0 69 -3 95 -6 30 -5 46 -3
46 4 0 15 -64 27 -136 25 -53 -2 -63 0 -67 16 -2 11 5 31 18 47 19 23 30 28
63 27 53 -2 100 -27 120 -64 16 -26 32 -38 32 -23 0 16 -42 73 -64 87 -13 9
-46 19 -72 22 -44 6 -52 4 -80 -22z"/>
<path d="M1853 2390 c-42 -25 -45 -56 -5 -45 75 19 106 17 146 -10 49 -33 71
-20 40 22 -41 56 -121 70 -181 33z"/>
<path d="M2343 2350 c-20 -12 -33 -28 -33 -40 0 -23 15 -25 50 -5 35 20 80 18
118 -5 42 -26 54 -25 50 2 -4 29 -72 68 -118 68 -19 0 -50 -9 -67 -20z"/>
<path d="M2002 2236 c-46 -39 -55 -43 -84 -37 -18 4 -46 15 -63 23 -30 15 -93
32 -152 42 -21 4 -39 0 -53 -12 -20 -16 -18 -17 47 -18 50 -1 89 -10 148 -33
103 -40 127 -40 156 2 13 17 26 34 29 37 11 11 32 40 28 40 -2 0 -27 -20 -56
-44z"/>
<path d="M2078 2249 c-31 -18 -22 -62 22 -109 58 -63 53 -110 -10 -110 -10 0
-33 12 -50 26 -24 20 -28 29 -18 35 9 6 5 9 -13 9 -15 0 -33 -7 -40 -17 -12
-14 -12 -16 0 -11 18 5 61 -43 86 -95 10 -21 30 -44 46 -52 53 -28 75 -20 151
55 39 38 74 67 79 64 13 -8 11 10 -3 24 -17 17 -49 15 -42 -2 7 -18 -33 -46
-66 -46 -42 0 -63 21 -51 50 13 31 30 52 56 66 10 6 28 22 38 36 24 32 11 61
-34 77 -40 14 -128 14 -151 0z m137 -19 c11 -9 11 -15 0 -36 -14 -27 -43 -53
-60 -54 -5 0 -3 5 5 10 13 8 13 10 -1 10 -9 0 -27 9 -40 21 -13 11 -18 17 -10
14 10 -6 11 -2 6 15 -5 15 -2 26 6 32 17 11 76 3 94 -12z m-18 -273 c3 -5 -1
-13 -8 -18 -24 -15 -66 -10 -90 11 l-24 19 58 -1 c32 -1 61 -6 64 -11z"/>
<path d="M2313 2200 c20 -41 38 -62 54 -66 12 -4 62 1 110 10 109 20 154 20
200 1 40 -17 46 -15 37 8 -11 30 -130 38 -244 17 -87 -16 -110 -12 -129 26 -9
17 -26 38 -38 47 -19 15 -18 10 10 -43z"/>
<path d="M1990 1909 c0 -18 32 -50 70 -70 40 -21 149 -18 189 6 53 31 48 46
-6 18 -41 -21 -57 -24 -106 -19 -68 7 -94 18 -124 54 -16 19 -23 22 -23 11z"/>
<path d="M1425 2722 c-27 -23 -68 -82 -62 -88 3 -3 13 7 23 23 10 15 29 40 43
56 28 30 26 35 -4 9z"/>
<path d="M1447 2552 c-21 -23 -22 -52 -3 -52 11 0 46 50 46 67 0 10 -29 0 -43
-15z"/>
<path d="M1310 2393 c0 -5 9 -21 20 -38 27 -41 25 -56 -11 -91 -40 -37 -89
-112 -89 -137 0 -10 5 -15 10 -12 6 3 10 3 10 -2 0 -4 18 -8 41 -7 36 1 41 -2
46 -28 10 -48 18 -39 19 21 1 40 10 76 28 116 14 31 26 60 26 62 0 3 -11 2
-25 -1 -26 -7 -31 0 -16 23 7 11 0 28 -21 58 -32 43 -38 49 -38 36z m65 -150
c-5 -10 -16 -40 -26 -68 -18 -50 -39 -65 -75 -51 -30 12 51 136 89 136 14 0
17 -4 12 -17z"/>
<path d="M504 1675 c-18 -14 -18 -14 6 -13 14 0 33 -3 43 -7 24 -10 22 12 -2
25 -25 13 -23 13 -47 -5z"/>
<path d="M645 1661 c-3 -6 -5 -11 -3 -12 35 -6 78 -4 75 5 -5 15 -63 20 -72 7z"/>
<path d="M450 1642 c0 -8 50 -24 83 -26 14 -1 12 17 -3 20 -8 1 -30 6 -47 9
-20 5 -33 4 -33 -3z"/>
<path d="M575 1630 c-3 -5 0 -18 7 -29 15 -25 4 -38 -17 -21 -26 22 -30 2 -5
-25 30 -32 50 -32 80 0 25 26 21 32 -10 15 -28 -15 -34 5 -9 29 l22 20 -27 11
c-33 12 -33 12 -41 0z"/>
<path d="M663 1617 c-9 -15 4 -18 56 -11 28 4 49 9 45 13 -9 9 -95 7 -101 -2z"/>
<path d="M200 1687 c0 -1 -9 -32 -19 -70 l-20 -67 35 0 c41 0 94 45 94 79 0
29 -35 61 -65 61 -14 0 -25 -1 -25 -3z"/>
<path d="M1701 1411 c-38 -88 -55 -172 -55 -272 -1 -89 1 -99 29 -145 39 -63
119 -118 209 -145 128 -38 129 -39 141 -100 8 -46 13 -53 30 -51 24 4 73 48
81 74 8 26 21 14 28 -27 8 -41 19 -50 47 -35 25 14 49 68 49 112 l0 32 33 -32
c18 -18 36 -32 39 -32 11 0 15 64 6 97 -10 36 -48 72 -123 114 -28 16 -58 43
-69 61 -10 18 -37 52 -59 75 l-39 41 27 36 c26 34 65 125 65 149 -1 6 -14 -17
-31 -53 -30 -66 -73 -120 -94 -120 -7 0 -37 8 -68 19 -32 10 -57 17 -57 14 0
-7 91 -43 110 -43 19 0 76 -58 129 -132 19 -27 38 -48 43 -48 16 0 117 -70
132 -92 9 -12 16 -33 16 -45 l0 -22 -45 23 -45 24 0 -54 c0 -54 -12 -94 -29
-94 -5 0 -16 20 -25 45 -19 48 -40 58 -51 25 -8 -24 -53 -80 -65 -80 -5 0 -11
19 -15 42 -9 49 -35 74 -85 81 -50 7 -141 43 -189 75 -85 57 -117 132 -107
247 8 78 40 225 57 256 6 12 9 23 6 25 -2 3 -14 -18 -26 -45z"/>
<path d="M2314 1366 c-3 -14 -13 -27 -21 -30 -15 -6 -72 20 -85 39 -4 5 -9 7
-12 4 -9 -9 36 -47 76 -63 41 -18 43 -16 53 37 8 41 -1 51 -11 13z"/>
<path d="M2156 1348 c-3 -13 -10 -60 -16 -105 -6 -45 -13 -91 -15 -103 -2 -11
0 -18 5 -15 12 8 48 245 36 245 -3 0 -8 -10 -10 -22z"/>
<path d="M1739 1335 c-1 -5 -1 -16 0 -24 2 -7 -2 -10 -8 -6 -6 3 -11 -1 -11
-9 0 -27 20 -17 35 17 8 17 14 26 15 19 0 -7 5 -10 10 -7 6 4 8 10 5 15 -7 12
-45 8 -46 -5z"/>
<path d="M2296 1274 c-10 -26 -7 -32 20 -38 16 -4 31 -2 38 5 8 9 8 10 -1 5
-6 -3 -15 -1 -18 5 -4 5 -13 8 -21 5 -8 -3 -14 -1 -14 3 0 5 5 11 12 13 8 3 9
6 1 11 -6 4 -14 0 -17 -9z"/>
<path d="M1393 1235 c-13 -19 -23 -37 -23 -39 0 -3 14 -4 30 -4 28 1 30 4 30
40 0 47 -9 48 -37 3z"/>
<path d="M1265 1224 c-17 -19 -32 -41 -34 -47 -2 -7 -15 -30 -29 -52 -35 -58
-3 -22 57 63 53 76 57 97 6 36z"/>
<path d="M2850 1151 c0 -18 12 -41 22 -41 5 0 6 5 3 10 -3 6 -1 10 5 10 6 0
18 -17 28 -37 14 -33 17 -35 20 -15 2 12 8 22 13 22 23 0 6 20 -27 30 -27 9
-33 15 -23 21 10 6 6 9 -13 9 -16 0 -28 -4 -28 -9z"/>
<path d="M2780 1061 c0 -14 7 -18 24 -17 23 1 23 2 9 19 -21 22 -33 22 -33 -2z"/>
<path d="M2802 1000 c0 -18 -8 -42 -16 -55 -9 -14 -16 -28 -16 -32 1 -14 40
39 40 53 0 17 14 18 43 2 21 -11 20 -9 -4 22 -34 45 -46 47 -47 10z"/>
<path d="M2087 984 c-16 -9 -27 -18 -24 -21 3 -2 14 0 25 6 12 6 36 11 54 11
25 0 29 3 18 10 -21 13 -40 12 -73 -6z"/>
<path d="M2610 990 c-14 -4 -44 -8 -67 -9 l-41 -1 -4 -71 c-3 -68 -2 -71 31
-102 18 -18 45 -57 59 -87 49 -106 29 -272 -48 -393 l-29 -46 33 -11 c18 -6
44 -22 57 -37 23 -25 23 -25 -36 6 -33 18 -61 34 -63 36 -2 2 10 29 26 61 39
78 72 190 72 247 0 55 -33 147 -65 185 -19 22 -17 13 12 -45 31 -62 36 -82 36
-140 -1 -79 -29 -172 -75 -250 -33 -55 -60 -73 -111 -74 -30 0 -30 -1 -10 -11
13 -6 36 -7 60 -2 50 11 69 8 111 -18 35 -21 35 -22 12 -30 -13 -5 -29 -7 -35
-4 -7 2 -18 0 -26 -5 -12 -7 -12 -9 1 -9 13 0 13 -2 0 -9 -8 -6 -26 -7 -41 -4
-20 4 -30 -1 -43 -18 -9 -14 -12 -25 -6 -27 5 -2 10 -15 10 -28 0 -13 5 -24
11 -24 5 0 7 5 4 10 -3 6 -1 10 6 10 8 0 9 4 0 13 -13 17 4 37 31 37 25 0 69
-23 92 -49 12 -13 26 -19 38 -15 24 7 23 -3 -2 -16 -21 -11 -73 -3 -65 10 5 9
-29 20 -60 20 -17 0 -17 -2 -5 -10 12 -8 12 -10 -5 -11 -17 -1 -16 -2 5 -10
15 -5 -52 -7 -172 -6 -116 1 -188 -1 -175 -7 12 -4 113 -10 225 -13 232 -7
285 3 344 64 31 32 32 34 16 61 -9 15 -47 49 -84 75 -38 26 -73 52 -77 56 -5
5 1 30 13 57 84 189 80 345 -14 451 -33 38 -40 52 -39 85 3 68 8 74 73 87 67
13 87 7 114 -34 9 -14 21 -25 27 -25 5 0 -2 17 -18 38 -15 20 -27 38 -28 39
-2 7 -55 10 -75 3z m44 -812 c27 -12 62 -56 52 -66 -3 -3 -30 11 -58 30 -29
20 -60 38 -68 41 -8 3 -1 6 17 6 18 1 43 -4 57 -11z m-45 -22 c24 -13 61 -55
61 -71 0 -11 -18 -4 -40 15 -13 11 -31 20 -42 20 -10 0 -28 6 -41 13 -12 6
-24 13 -26 14 -1 1 0 6 4 12 9 15 51 14 84 -3z"/>
<path d="M1963 724 c-13 -14 -23 -32 -23 -40 0 -9 -5 -12 -10 -9 -10 6 -35
-43 -26 -52 4 -4 51 54 79 100 22 34 9 35 -20 1z"/>
<path d="M1194 663 c-5 -27 -7 -70 -6 -97 2 -56 30 -149 42 -141 5 3 11 1 14
-4 4 -5 2 -12 -3 -15 -11 -7 -33 19 -59 69 -12 22 -21 33 -22 24 0 -31 78
-136 127 -169 26 -19 49 -34 51 -36 8 -5 -32 -110 -47 -123 -14 -12 -14 -13 7
-8 13 3 22 0 23 -6 0 -7 13 26 30 73 27 77 28 86 13 95 -9 6 -30 21 -46 34
-16 13 -32 20 -36 16 -4 -3 2 -13 12 -21 21 -15 10 -19 -13 -5 -8 5 -11 16 -8
25 4 10 -4 33 -18 55 -39 63 -58 144 -50 217 8 74 0 86 -11 17z"/>
<path d="M1329 677 c-16 -36 -6 -61 21 -47 23 13 25 28 5 54 -14 18 -15 18
-26 -7z"/>
<path d="M459 634 c-21 -25 -24 -171 -5 -237 9 -32 21 -57 26 -57 6 0 10 -7
10 -15 0 -32 104 -121 191 -162 143 -68 308 -85 547 -57 52 6 52 6 53 -22 2
-23 3 -21 8 11 4 22 6 41 5 43 0 1 -32 -5 -70 -14 -42 -9 -116 -16 -189 -16
-266 -1 -471 95 -552 259 -24 51 -28 69 -28 154 0 67 4 101 14 112 7 10 11 17
8 17 -2 0 -10 -7 -18 -16z"/>
<path d="M1266 584 c-10 -25 20 -64 49 -64 26 0 33 14 14 26 -6 3 -14 2 -18
-4 -4 -6 -11 -5 -19 4 -12 13 -8 18 11 15 4 -1 2 8 -5 19 -15 24 -24 25 -32 4z"/>
<path d="M471 510 c-1 -59 19 -138 45 -179 45 -68 138 -133 237 -165 56 -19
165 -36 213 -35 28 1 19 4 -31 10 -99 13 -230 55 -289 94 -104 67 -152 143
-166 264 l-7 66 -2 -55z"/>
<path d="M510 506 c0 -29 48 -101 101 -151 58 -55 131 -90 226 -110 63 -14
192 -21 182 -10 -5 4 -123 18 -161 19 -10 0 -18 4 -18 8 0 4 -7 5 -15 2 -8 -4
-15 -1 -15 5 0 6 -3 10 -7 9 -26 -5 -143 46 -143 63 0 5 -5 9 -10 9 -26 0
-112 106 -115 142 0 4 -6 13 -12 20 -10 10 -13 8 -13 -6z"/>
<path d="M1457 501 c5 -19 3 -22 -8 -16 -11 6 -11 5 -3 -4 7 -7 20 -11 29 -9
16 3 15 5 -3 28 l-21 25 6 -24z"/>
<path d="M1470 340 c0 -6 -4 -8 -10 -5 -5 3 -10 1 -10 -4 0 -14 50 -14 70 -1
13 8 13 10 -2 10 -9 0 -23 3 -32 6 -9 3 -16 1 -16 -6z"/>
<path d="M1115 140 l-60 -7 55 0 c30 0 69 3 85 7 26 7 27 8 5 7 -14 0 -52 -3
-85 -7z"/>
</g>
</svg>
