<svg width="284" height="285" viewBox="0 0 284 285" fill="none" xmlns="http://www.w3.org/2000/svg">
<path d="M246.166 38.6004V38.1004H245.666H36.1833H35.6833V38.6004L35.6833 95.7319V97.2469L36.5851 96.0295L45.7991 83.5906H166.383L183.662 121.624L36.1851 121.106L35.6833 121.104V121.606V248.083V248.583H36.1833H97.2755H97.7755V248.083V144.565L122.476 169.726L122.623 169.876H122.833H245.666H246.166V169.376V38.6004ZM159.265 247.722L158.368 248.583H159.611H242.119H242.922L242.567 247.862L213.264 188.279L213.126 187.999H212.815H138.33H137.193L137.961 188.837L176.647 231.04L159.265 247.722ZM0.5 1.0127H283.253V283.766H0.5V1.0127Z" stroke="#38C4D0"/>
</svg>
