<svg width="333" height="352" viewBox="0 0 333 352" fill="none" xmlns="http://www.w3.org/2000/svg">
<path d="M166.486 339.17L1.26663 243.444V255.021L166.486 350.748V339.17Z" fill="#071009"/>
<path d="M166.486 339.17L331.705 243.444V255.021L166.486 350.748V339.17Z" fill="#071009"/>
<path d="M166.486 339.17L1.26663 243.444L115.565 177.221L283.055 215.028L331.705 243.444L166.486 339.17Z" fill="#071009"/>
<path d="M1.26663 243.444L166.486 339.17M1.26663 243.444V255.021L166.486 350.748M1.26663 243.444L115.565 177.221L283.055 215.028L331.705 243.444M166.486 339.17L331.705 243.444M166.486 339.17V350.748M331.705 243.444V255.021L166.486 350.748" stroke="#69FF93" stroke-miterlimit="10"/>
<path d="M224.055 0.89502L116.405 63.1688L224.055 125.443L331.705 63.1688L224.055 0.89502Z" fill="#071009"/>
<path d="M224.055 125.443L116.405 63.1688V187.717L224.055 249.99V125.443Z" fill="#071009"/>
<path d="M224.055 125.443L331.705 63.1688V187.717L224.055 249.99V125.443Z" fill="#071009"/>
<path d="M116.405 63.1688L224.055 0.89502L331.705 63.1688M116.405 63.1688L224.055 125.443M116.405 63.1688V187.717L224.055 249.99M224.055 125.443L331.705 63.1688M224.055 125.443V249.99M331.705 63.1688V187.717L224.055 249.99" stroke="#69FF93" stroke-miterlimit="10"/>
</svg>
