<svg width="122" height="122" viewBox="0 0 122 122" fill="none" xmlns="http://www.w3.org/2000/svg">
<g id="Group">
<path id="Vector" d="M27.6891 117.519C22.667 116.767 17.1835 112.99 14.3908 103.931C9.4392 87.8679 15.0088 24.9125 16.0101 21.2672C16.4325 19.7315 27.7047 11.1611 35.7697 8.72571C39.9938 7.45372 42.0824 8.57834 44.4996 10.0985C46.9167 11.6187 48.6142 14.1627 50.5385 14.9538C52.4629 15.7449 81.5703 11.3783 82.8063 10.3157C84.05 9.25311 84.8323 3.94801 85.7084 3.13363C86.5845 2.31925 91.3171 2.43559 93.6482 3.52919C95.9793 4.62278 98.7798 6.82549 99.2726 7.55455C99.7654 8.28361 108.527 25.3934 111.014 30.8768C113.494 36.3603 120.628 52.2757 120.98 63.9484C121.332 75.6212 116.818 80.2981 116.818 80.2981C116.818 80.2981 109.098 67.6093 107.588 66.4614C106.078 65.3135 105.061 64.2432 100.313 65.4221C98.8736 65.7789 93.0068 66.9423 88.7122 68.2996" stroke="#49B267" stroke-miterlimit="10" stroke-dasharray="1 1"/>
<path id="Vector_2" d="M95.0655 36.4618C93.5714 35.6629 91.9287 35.3915 90.286 36.0197C86.8206 37.3538 84.5912 43.1708 87.1413 48.4759C90.239 54.9366 95.0108 57.2944 99.008 54.8513C100.275 54.0835 101.089 52.7882 101.496 51.2292" stroke="#49B267" stroke-miterlimit="10" stroke-dasharray="1 1"/>
<path id="Vector_3" d="M95.5472 36.2347C93.0205 37.1965 90.2513 41.2606 93.0049 46.7131C95.5315 51.7157 100.256 52.0803 102.783 50.7462C105.31 49.4199 106.154 45.5962 104.692 41.5321C103.479 38.1582 99.7948 34.6137 95.555 36.2347H95.5472Z" stroke="#49B267" stroke-miterlimit="10"/>
<path id="Vector_4" d="M98.2412 37.9251C96.2151 38.4525 95.1982 41.361 96.1526 44.1687C97.0521 46.829 99.4067 49.0705 101.808 48.5741C103.795 48.1708 104.57 45.2623 103.967 42.7105C103.271 39.7865 100.533 37.3279 98.2412 37.9251Z" stroke="#49B267" stroke-miterlimit="10"/>
<path id="Vector_5" d="M64.0241 41.299C62.3109 40.7871 60.5039 40.7483 58.7282 41.361C53.3307 43.2224 52.3216 49.815 53.6827 53.7629C55.0439 57.7107 59.7217 63.8534 66.8245 63.008C70.6262 62.5582 72.4567 59.8125 73.1294 56.8575" stroke="#49B267" stroke-miterlimit="10" stroke-dasharray="1 1"/>
<path id="Vector_6" d="M61.1925 43.1091C62.2564 41.7286 65.1116 40.4023 68.2484 41.1857C71.5886 42.0233 74.4595 44.9085 75.4842 49.12C76.6498 53.921 74.2092 56.6899 71.3931 57.83C68.4988 59.0089 63.1638 57.2328 61.0439 53.4014C58.924 49.5699 59.4638 45.3661 61.1925 43.1169V43.1091Z" stroke="#49B267" stroke-miterlimit="10"/>
<path id="Vector_7" d="M67.295 42.8905C69.4227 42.813 72.45 44.6512 73.6469 48.2499C74.6403 51.2282 73.5921 54.3927 70.909 54.5788C68.0851 54.7727 65.1517 52.2133 64.1739 48.9247C63.3994 46.3187 64.4242 42.9914 67.295 42.8905Z" stroke="#49B267" stroke-miterlimit="10"/>
<path id="Vector_8" d="M39.0401 19.1102C31.2098 21.1423 30.5214 31.7602 32.4692 36.8404C34.417 41.9128 40.542 47.1171 46.3228 45.6125C52.088 44.1156 54.4113 36.0571 52.6277 29.1465C50.9616 22.7012 45.0399 17.559 39.0401 19.1102Z" stroke="#49B267" stroke-miterlimit="10"/>
<path id="Vector_9" d="M52.3578 33.1631C52.3422 33.675 52.3578 34.3631 50.4761 34.9096C49.9128 35.119 48.098 35.6465 47.0498 35.9489" stroke="#49B267" stroke-miterlimit="10"/>
<path id="Vector_10" d="M44.8223 26.983C46.3007 26.6573 49.2967 26.0058 49.7035 25.9282C50.3215 25.8196 50.7517 26.0135 51.002 26.7814" stroke="#49B267" stroke-miterlimit="10"/>
<path id="Vector_11" d="M48.1575 42.1638C48.0089 42.6834 47.847 43.9695 46.9083 44.3573C45.1091 45.0941 42.8171 45.2958 41.9879 44.8769C41.1588 44.4581 39.4143 38.5558 39.2892 38.3774C39.164 38.2068 35.3467 39.3779 34.494 39.2693C33.6414 39.153 32.8513 35.9963 32.5462 34.5149C32.2411 33.0335 32.1003 30.7843 32.2802 30.2569C32.4602 29.7295 36.7469 29.1943 36.9112 28.8996C37.0754 28.6048 36.4418 26.4719 36.1211 24.7423C35.8004 23.0128 35.7065 22.0976 36.0037 21.384C36.3949 20.461 38.5382 19.9181 39.9072 19.6854C41.2761 19.4528 42.3556 19.3829 42.5512 20.2594" stroke="#49B267" stroke-miterlimit="10"/>
<path id="Vector_12" d="M44.0452 43.0926C43.8731 43.0228 43.7792 42.922 43.7166 42.7436C43.5054 42.1541 43.2003 41.2467 42.8874 40.3237C41.8705 37.3066 41.7297 36.9498 41.5733 36.7482L41.4559 36.5931L41.2525 36.5077C40.9005 36.3604 40.525 36.4379 38.9605 36.787C38.1626 36.9653 36.5903 37.3144 35.9802 37.3144C35.6203 36.5388 34.8616 34.4136 34.7051 33.4053L34.6895 33.289C34.58 32.5987 34.4079 31.4818 34.533 31.1018C34.9867 30.8691 36.6294 30.4813 37.443 30.2874C39.1248 29.8919 39.383 29.8298 39.5629 29.4032C39.6724 29.1395 39.6489 29.0232 39.3751 27.6426C39.1248 26.3784 38.366 22.5159 38.6789 21.8256C38.7259 21.7868 39.2187 21.3525 42.2225 20.7863L42.3868 20.7553C42.7466 20.6855 43.1456 20.701 43.3646 20.7941C43.4741 20.8406 43.4819 20.8716 43.4898 20.9104C44.6866 27.9374 45.3046 28.2011 45.7113 28.3717C46.1259 28.5423 46.6813 28.4182 48.8873 27.8288C49.6852 27.6116 50.8429 27.3014 51.3514 27.2238C51.6877 27.8288 52.2979 29.7755 52.4856 31.0553L52.5091 31.2259C52.7359 32.7849 52.6186 32.8081 52.2666 32.8857C47.3775 33.9638 47.1116 34.4524 46.9786 34.7161C46.7517 35.1504 46.8534 35.546 47.9877 38.5476C48.371 39.5714 48.9577 41.1148 48.989 41.4406C49.0046 41.7353 48.4883 42.317 47.2758 42.666L47.0255 42.7358C46.1729 42.984 44.7414 43.3951 44.0452 43.1081V43.0926Z" stroke="#49B267" stroke-miterlimit="10"/>
<path id="Vector_13" d="M69.4239 30.8442C67.8907 31.0381 66.9911 33.233 68.6651 35.2574C70.034 36.9171 72.5372 36.8241 72.7171 34.761C72.9127 32.5583 71.0275 30.6425 69.4239 30.8442Z" stroke="#49B267" stroke-miterlimit="10"/>
<path id="Vector_14" d="M80.7419 28.9517C79.193 28.9594 78.0353 31.038 79.459 33.2485C80.6245 35.0634 83.1121 35.2651 83.5423 33.233C83.996 31.0691 82.3533 28.9439 80.7419 28.9517Z" stroke="#49B267" stroke-miterlimit="10"/>
<path id="Vector_15" d="M91.5751 18.6004C89.2362 18.422 87.2258 21.408 89.0876 24.9215C90.613 27.799 94.3443 28.4195 95.2517 25.4101C96.2139 22.2069 94.0079 18.7865 91.5751 18.6004Z" stroke="#49B267" stroke-miterlimit="10"/>
<path id="Vector_16" d="M106.141 23.3844C106.368 20.5845 104.491 17.2571 102.872 16.8306C101.315 16.4195 100.376 18.9092 102.042 22.283C103.404 25.0519 105.922 26.0137 106.141 23.3844Z" stroke="#49B267" stroke-miterlimit="10"/>
<path id="Vector_17" d="M98.39 14.8074C99.0158 11.8524 96.9819 8.57938 94.9403 8.32343C92.9846 8.07524 91.4749 10.7821 93.2271 14.1249C94.6587 16.8705 97.8033 17.5841 98.39 14.8074Z" stroke="#49B267" stroke-miterlimit="10"/>
<path id="Vector_18" d="M103.936 33.3971C104.836 30.5119 103.123 27.0682 101.12 26.6184C99.1958 26.1841 97.4357 28.7435 98.8594 32.2337C100.025 35.0957 103.084 36.104 103.936 33.3971Z" stroke="#49B267" stroke-miterlimit="10"/>
<path id="Vector_19" d="M95.2595 25.4101C96.2217 22.2069 94.0157 18.7865 91.583 18.6004C89.244 18.422 87.2337 21.408 89.0954 24.9215C90.6208 27.799 94.3521 28.4195 95.2595 25.4101Z" stroke="#49B267" stroke-miterlimit="10"/>
<path id="Vector_20" d="M106.141 23.3844C106.368 20.5845 104.491 17.2571 102.872 16.8306C101.315 16.4195 100.376 18.9092 102.042 22.283C103.404 25.0519 105.922 26.0137 106.141 23.3844Z" stroke="#49B267" stroke-miterlimit="10"/>
<path id="Vector_21" d="M98.39 14.8074C99.0158 11.8524 96.9819 8.57938 94.9403 8.32343C92.9846 8.07524 91.4749 10.7821 93.2271 14.1249C94.6587 16.8705 97.8033 17.5841 98.39 14.8074Z" stroke="#49B267" stroke-miterlimit="10"/>
<path id="Vector_22" d="M103.936 33.3971C104.836 30.5119 103.131 27.0682 101.12 26.6184C99.1958 26.1841 97.4357 28.7435 98.8594 32.2337C100.025 35.0957 103.084 36.104 103.936 33.3971Z" stroke="#49B267" stroke-miterlimit="10"/>
<path id="Vector_23" d="M120.964 63.9477C120.612 52.275 113.486 36.3596 110.998 30.8761C108.519 25.3926 99.7498 8.28289 99.257 7.55383C98.8658 6.97988 97.0354 5.47522 95.1267 4.33509C94.2349 3.73012 93.2415 3.17169 92.2324 2.7994C89.3772 1.75234 84.9262 0.433816 83.0488 0.837128C81.1714 1.23268 80.1388 2.11687 78.9342 2.79164C77.7295 3.46641 57.4301 5.39766 51.7901 6.59984C46.1501 7.79426 45.8529 8.19758 42.7943 7.32115C39.7357 6.45248 33.1413 8.0347 27.7204 11.5404C22.2994 15.0461 11.6452 22.8952 8.66479 25.6719C5.26201 28.8441 3.73663 30.7831 3.53325 32.7608C3.2751 35.266 4.96476 36.8793 5.05081 45.1394C5.13685 53.3996 -0.198078 80.8326 1.24908 96.841C2.91527 115.324 10.8316 120.117 18.9905 120.745C24.8573 121.195 33.509 112.935 33.9001 112.516C38.1868 108.002 53.3233 86.2075 55.9361 82.8336C58.5488 79.4598 60.5748 77.8077 64.1184 76.6443C66.5903 75.8377 78.809 71.4323 88.6888 68.2989C91.9351 80.3284 100.219 86.921 104.983 87.1847C109.262 87.4252 115.981 83.5549 119.024 76.4582C120.276 73.9297 121.129 69.7182 120.957 63.9477H120.964Z" stroke="#49B267" stroke-miterlimit="10"/>
</g>
</svg>
