<svg width="142" height="142" viewBox="0 0 142 142" fill="none" xmlns="http://www.w3.org/2000/svg">
<path d="M1 63.5763L7.70718 73.2076M16.2027 30.1394L26.9004 27.6958M69.3228 85.8373L67.042 89.32M7.70718 73.2076L9.94287 70.3909M7.70718 73.2076L1 82.0211M9.94287 70.3909L6.46657 65.3575M9.94287 70.3909L15.0575 77.7233M1 82.0211L12.0891 79.8405M1 82.0211L31.6299 91.903M1 82.0211L8.87321 85.3746M1 82.0211L8.295 86.8921M12.0891 79.8405L15.0575 77.7233M12.0891 79.8405L36.6019 75.1762L31.6299 91.903M24.2644 71.1564L22.001 72.7707M22.001 72.7707L23.0542 70.7621M22.001 72.7707L15.0575 77.7233M37.6654 134.176L51.3597 79.9846M37.6654 134.176L41.9522 127.63M37.6654 134.176L44.0538 132.71M37.6654 134.176L35.6297 128.952M67.042 89.32L67.5502 93.065M67.042 89.32L59.3336 101.09M59.3336 101.09L65.1327 102.923M59.3336 101.09L57.1901 104.363M64.1085 107.099L60.6493 105.731M57.1901 104.363L55.0054 107.699M57.1901 104.363L60.6493 105.731M55.0054 107.699L60.6493 105.731M55.0054 107.699L49.8804 115.524M49.8804 115.524L44.9985 134.993M49.8804 115.524L43.7729 124.85M44.9985 134.993L44.0538 127.174M44.9985 134.993L44.0538 132.71M44.9985 134.993L49.8804 133.306M43.7729 124.85L41.9522 127.63M43.7729 124.85L44.0538 127.174M41.9522 127.63L44.0538 127.174M41.9522 127.63L44.0538 132.71M35.6297 128.952L27.113 107.099L29.5844 98.7845M35.6297 128.952L31.3161 130.359L5.65034 93.8331M5.65034 93.8331L21.479 90.7438M5.65034 93.8331L11.2395 86.3825M5.65034 93.8331L8.295 86.8921M21.479 90.7438L25.9205 93.4562M21.479 90.7438L30.9959 94.0358M21.479 90.7438L11.2395 86.3825M30.362 96.1686L25.9205 93.4562M30.362 96.1686L29.5844 98.7845M30.362 96.1686L30.9959 94.0358M25.9205 93.4562L29.5844 98.7845M31.6299 91.903L30.9959 94.0358M11.2395 86.3825L8.87321 85.3746M8.87321 85.3746L8.295 86.8921M58.4039 130.359L54.1421 131.833M49.8804 133.306L55.7298 141.263L59.1263 139.77M49.8804 133.306L54.1421 131.833M54.1421 131.833L57.0668 135.811M110.525 105.731L108.836 109.789M104.383 120.487L81.6594 109.789M104.383 120.487L92.0894 116.269M104.383 120.487L106.449 115.524M79.7957 112.051L92.0894 116.269M114.619 126.491L92.0894 116.269M114.619 126.491L104.383 125.955M114.619 126.491L106.449 115.524M114.619 126.491L114.837 115.524M104.383 125.955L101.477 124.639M104.383 125.955L101.477 131.833M78.1302 114.073L89.4478 119.195M66.93 127.668L89.4478 119.195M89.4478 119.195L101.477 124.639M101.477 124.639V131.833M101.477 131.833L60.0629 141.263M60.0629 141.263L60.6493 135.291M60.0629 141.263L59.1263 139.77M58.1896 138.277L59.1263 139.77M106.449 115.524L107.642 112.657M114.993 107.699L114.952 109.789M108.836 109.789L111.031 112.051M108.836 109.789L107.642 112.657M111.031 112.051L113.631 107.099M111.031 112.051L107.642 112.657M114.952 109.789L118.159 109.093M114.952 109.789L114.837 115.524M114.837 115.524L126.016 112.553L141 79.5303L134.399 69.5993M82.1175 1.2627L40.541 11.3416L37.7973 17.1306M136.462 49.1882L111.031 12.5204L106.712 14.0322M126.028 72.6784L136.462 78.887L118.992 101.511M126.572 71.4539L132.643 66.9573M141 60.7675L133.474 55.9167M141 60.7675L132.643 66.9573M141 60.7675L134.399 69.5993M132.643 66.9573L134.399 69.5993M89.3637 20.1047L92.3534 19.0582M96.5841 38.8799L114.83 35.679M114.83 35.679L99.7571 47.1304M114.83 35.679L107.101 43.7009M100.909 50.1264L107.101 43.7009M107.101 43.7009L121.979 52.9431M82.7161 2.81931L86.655 1.2627M86.655 1.2627L92.3534 9.73275M86.655 1.2627L87.4923 11.3416M92.3534 9.73275L97.313 7.91008M92.3534 9.73275L87.4923 11.3416M97.313 7.91008L92.3534 19.0582M97.313 7.91008L98.1379 10.3131M100.197 16.3125L92.3534 19.0582M100.197 16.3125L98.1379 10.3131M100.197 16.3125L106.712 14.0322M87.9053 16.3125L87.4923 11.3416M98.1379 10.3131L104.383 8.55337L106.712 14.0322M37.7973 17.1306L40.541 34.9285M37.7973 17.1306L37.598 25.2522M37.7973 17.1306L27.2079 16.0181L26.9004 27.6958M37.7973 17.1306L41.5725 22.8294M37.7973 17.1306L48.714 21.1181M40.541 34.9285L44.973 35.679M40.541 34.9285L37.3637 34.8025M44.973 35.679L46.0636 42.2363M44.973 35.679L52.5707 39.4315M52.5707 39.4315L59.9368 43.7009L57.4967 27.2412M52.5707 39.4315L50.588 36.4385M55.3144 12.5204L80.7845 3.81318M55.3144 12.5204L56.4583 20.2368M55.3144 12.5204L48.714 21.1181M26.6665 34.3784L28.8752 34.466M37.3637 34.8025L37.3987 33.3738M37.3637 34.8025L33.1194 34.6342M37.3637 28.9481L31.2824 31.1599M31.2824 31.1599L28.8752 34.466M31.2824 31.1599L37.3987 33.3738M31.2824 31.1599L33.1194 34.6342M28.8752 34.466L33.1194 34.6342M37.3987 33.3738L37.598 25.2522M37.598 25.2522L26.9004 27.6958M50.588 36.4385L49.0322 34.09M50.588 36.4385L53.24 32.908M57.4967 27.2412L53.24 32.908M57.4967 27.2412L57.0227 24.044M49.0322 34.09L53.24 32.908M49.0322 34.09L41.5725 22.8294M50.588 21.8026L56.4583 20.2368M50.588 21.8026L45.2922 23.1637M50.588 21.8026L48.714 21.1181M56.4583 20.2368L56.7405 22.1404M45.2922 23.1637L41.5725 22.8294M45.2922 23.1637L52.1561 23.6788M57.0227 24.044L56.7405 22.1404M57.0227 24.044L52.1561 23.6788M56.7405 22.1404L52.1561 23.6788" stroke="#49B267" stroke-dasharray="1 1"/>
<path d="M58.1444 47.1304L69.3228 85.8373M58.1444 47.1304L46.0636 42.2363L26.6665 34.3784L16.2027 30.1394L1 63.5763L6.46657 65.3575L23.0542 70.7621L24.2644 71.1564L36.6019 75.1762L51.3597 79.9846L69.3228 85.8373M58.1444 47.1304L59.9368 43.7009L80.7845 3.81318L82.1175 1.2627L82.7161 2.81931L87.9053 16.3125L89.3637 20.1047L96.5841 38.8799L99.7571 47.1304L100.909 50.1264L103.805 57.655M69.3228 85.8373L67.5502 93.065L65.1327 102.923L64.1085 107.099L58.4039 130.359L57.0668 135.811L55.7298 141.263L58.1896 138.277L60.6493 135.291L66.93 127.668L78.1302 114.073L79.7957 112.051L81.6594 109.789L91.7975 97.4837M69.3228 85.8373L104.383 59.1593M104.383 59.1593L100.336 72.1824M104.383 59.1593L103.805 57.655M91.7975 97.4837L92.881 96.1686L100.336 72.1824M91.7975 97.4837L110.525 105.731L113.631 107.099L114.993 107.699L118.159 109.093L126.016 112.553L118.992 101.511L115.593 96.1686M100.336 72.1824L115.593 96.1686M103.805 57.655L121.979 52.9431L136.462 49.1882L133.474 55.9167L126.572 71.4539L126.028 72.6784L115.593 96.1686" stroke="#49B267"/>
</svg>
