<?xml version="1.0" encoding="UTF-8"?>
<svg xmlns="http://www.w3.org/2000/svg" xmlns:xlink="http://www.w3.org/1999/xlink" width="56px" height="56px" viewBox="0 0 56 56" version="1.1">
<g id="surface1">
<path style=" stroke:none;fill-rule:nonzero;fill:rgb(0%,0%,0%);fill-opacity:1;" d="M 0 28 L 0 56 L 17.132812 55.992188 C 31.507812 55.984375 34.210938 55.964844 33.992188 55.867188 C 33.84375 55.808594 33.433594 55.710938 33.082031 55.667969 C 32.128906 55.527344 31.78125 55.222656 32.21875 54.914062 C 32.472656 54.730469 33.179688 54.738281 33.539062 54.914062 C 33.898438 55.097656 34.28125 55.457031 34.441406 55.753906 L 34.570312 56 L 56 56 L 56 0 L 0 0 Z M 34.578125 0.664062 C 35.167969 0.960938 35.761719 1.53125 36.296875 2.300781 C 36.8125 3.054688 37.214844 3.769531 37.152344 3.824219 C 37.125 3.851562 36.847656 3.964844 36.53125 4.070312 C 35.445312 4.453125 34.132812 5.320312 33.128906 6.335938 C 32.402344 7.0625 31.980469 7.621094 31.585938 8.390625 C 31.316406 8.917969 31.289062 8.933594 31.210938 8.742188 C 31.097656 8.445312 31.203125 5.703125 31.367188 4.769531 C 31.710938 2.792969 32.253906 1.433594 32.933594 0.804688 C 33.285156 0.480469 33.390625 0.4375 33.730469 0.4375 C 33.984375 0.4375 34.292969 0.515625 34.578125 0.664062 Z M 49.953125 1.890625 C 50.363281 2.230469 50.636719 2.757812 50.855469 3.632812 C 51.144531 4.777344 51.144531 7.324219 50.855469 9.003906 C 50.742188 9.652344 50.609375 10.28125 50.558594 10.402344 C 50.46875 10.621094 50.453125 10.605469 50.304688 10.105469 C 49.953125 8.976562 49.359375 7.945312 48.457031 6.894531 C 47.757812 6.089844 46.644531 5.152344 46.015625 4.847656 C 45.734375 4.707031 45.5 4.558594 45.5 4.515625 C 45.5 4.402344 46.3125 3.414062 46.742188 3.011719 C 47.757812 2.054688 48.457031 1.6875 49.28125 1.671875 C 49.59375 1.664062 49.742188 1.714844 49.953125 1.890625 Z M 41.832031 4.035156 C 46.480469 4.496094 49.59375 7.472656 50.355469 12.164062 C 50.46875 12.84375 50.582031 13.210938 50.800781 13.605469 C 51.214844 14.367188 51.539062 15.390625 51.539062 15.960938 C 51.539062 16.476562 51.527344 16.492188 51.292969 16.371094 C 51.152344 16.300781 51.144531 16.390625 51.144531 17.351562 C 51.144531 18.347656 51.019531 19.074219 50.847656 19.074219 C 50.8125 19.074219 50.714844 18.945312 50.617188 18.785156 L 50.445312 18.507812 L 50.375 19.109375 C 50.285156 19.914062 49.996094 20.527344 49.429688 21.097656 L 48.964844 21.570312 L 48.914062 21.175781 L 48.867188 20.78125 L 48.578125 21.234375 C 48.222656 21.789062 47.539062 22.425781 46.875 22.828125 C 46.488281 23.054688 46.164062 23.152344 45.4375 23.285156 C 41.28125 23.992188 36.652344 23.546875 33.941406 22.179688 C 32.578125 21.488281 31.542969 20.492188 31.246094 19.574219 C 31.113281 19.1875 30.976562 19.222656 30.976562 19.652344 C 30.976562 19.992188 30.859375 20.039062 30.675781 19.75 C 30.441406 19.382812 30.082031 16.378906 30.082031 14.769531 C 30.082031 12.921875 30.203125 12.164062 30.554688 11.769531 C 30.695312 11.601562 30.894531 11.191406 31.019531 10.824219 C 31.238281 10.140625 31.4375 9.652344 31.867188 8.792969 C 32.742188 7.042969 34.335938 5.511719 36.09375 4.726562 C 36.652344 4.472656 38.019531 4.070312 38.542969 4 C 39.105469 3.921875 40.976562 3.9375 41.832031 4.035156 Z M 29.722656 4.890625 C 29.828125 5.023438 29.890625 5.039062 29.933594 4.96875 C 29.984375 4.890625 30.046875 4.910156 30.179688 5.023438 C 30.421875 5.242188 30.414062 5.355469 30.171875 5.257812 C 29.707031 5.09375 28.0625 4.875 28.140625 4.996094 C 28.167969 5.039062 28.105469 5.074219 28 5.074219 C 27.578125 5.074219 26.164062 6.132812 26.164062 6.449219 C 26.164062 6.578125 25.980469 6.929688 25.863281 7.007812 C 25.828125 7.042969 25.785156 7.429688 25.777344 7.875 C 25.769531 8.445312 25.734375 8.707031 25.664062 8.734375 C 25.601562 8.75 25.550781 8.8125 25.550781 8.871094 C 25.550781 8.933594 25.445312 9.074219 25.3125 9.195312 L 25.078125 9.40625 L 25.207031 9.1875 C 25.289062 9.066406 25.382812 8.847656 25.417969 8.707031 C 25.496094 8.433594 25.507812 8.339844 25.53125 7.550781 C 25.550781 7.191406 25.601562 7.035156 25.796875 6.808594 C 25.933594 6.648438 26.09375 6.394531 26.152344 6.238281 C 26.285156 5.90625 27.089844 5.128906 27.210938 5.207031 C 27.265625 5.234375 27.300781 5.222656 27.300781 5.171875 C 27.300781 5.003906 28.183594 4.761719 28.875 4.734375 C 29.480469 4.714844 29.59375 4.742188 29.722656 4.890625 Z M 24.851562 8.671875 C 24.851562 8.722656 24.816406 8.734375 24.761719 8.707031 C 24.71875 8.679688 24.675781 8.609375 24.675781 8.566406 C 24.675781 8.515625 24.71875 8.503906 24.761719 8.53125 C 24.816406 8.558594 24.851562 8.628906 24.851562 8.671875 Z M 21.996094 9.5625 C 21.71875 9.878906 21.515625 10.148438 21.261719 10.542969 C 21.035156 10.894531 21.042969 10.769531 21.269531 10.351562 C 21.429688 10.0625 22.109375 9.273438 22.207031 9.273438 C 22.226562 9.273438 22.128906 9.40625 21.996094 9.5625 Z M 21.015625 11.042969 C 20.9375 11.148438 20.832031 11.496094 20.457031 12.820312 C 20.246094 13.597656 20.160156 13.816406 19.773438 14.570312 C 19.292969 15.496094 19.152344 15.75 19.015625 15.925781 C 18.960938 15.996094 18.910156 16.089844 18.910156 16.144531 C 18.898438 16.1875 18.8125 16.484375 18.714844 16.792969 C 18.296875 18.035156 18.839844 19.417969 19.835938 19.679688 C 20.175781 19.773438 20.203125 19.800781 20.351562 20.28125 C 20.527344 20.84375 21.183594 22.15625 21.394531 22.363281 C 21.464844 22.433594 21.523438 22.539062 21.523438 22.582031 C 21.523438 22.722656 21.148438 22.574219 20.984375 22.375 C 20.894531 22.269531 20.789062 22.136719 20.738281 22.078125 C 20.328125 21.578125 19.539062 20.046875 19.589844 19.835938 C 19.601562 19.792969 19.566406 19.785156 19.511719 19.820312 C 19.347656 19.921875 18.65625 19.074219 18.488281 18.558594 C 18.289062 17.929688 18.289062 16.949219 18.488281 16.546875 C 18.566406 16.378906 18.636719 16.195312 18.636719 16.136719 C 18.636719 16.066406 18.847656 15.574219 19.109375 15.03125 C 19.808594 13.570312 20.125 12.863281 20.265625 12.476562 C 20.335938 12.285156 20.421875 12.09375 20.457031 12.039062 C 20.492188 11.988281 20.578125 11.785156 20.640625 11.59375 C 20.78125 11.191406 21 10.824219 21.070312 10.886719 C 21.097656 10.910156 21.070312 10.980469 21.015625 11.042969 Z M 25.65625 13.878906 C 25.691406 13.902344 25.59375 14.183594 25.453125 14.488281 C 25.3125 14.804688 25.128906 15.304688 25.058594 15.601562 C 24.980469 15.898438 24.859375 16.195312 24.78125 16.25 C 24.613281 16.378906 24.160156 16.398438 23.851562 16.273438 L 23.625 16.195312 L 23.859375 15.644531 C 23.992188 15.339844 24.21875 14.902344 24.359375 14.671875 C 24.710938 14.121094 25.453125 13.667969 25.65625 13.878906 Z M 9.617188 21.558594 C 9.6875 21.613281 9.851562 21.8125 9.992188 21.996094 L 10.238281 22.339844 L 9.871094 22.523438 C 9.660156 22.628906 9.238281 22.953125 8.933594 23.257812 L 8.375 23.808594 L 8.417969 23.082031 C 8.515625 21.699219 9.003906 21.070312 9.617188 21.558594 Z M 13.109375 21.613281 C 13.257812 21.671875 13.386719 21.726562 13.386719 21.742188 C 13.386719 21.753906 13.222656 21.925781 13.027344 22.128906 L 12.671875 22.488281 L 11.960938 22.347656 C 11.550781 22.261719 11.085938 22.226562 10.839844 22.25 C 10.449219 22.304688 10.402344 22.285156 10.238281 22.050781 C 10.140625 21.917969 10.0625 21.789062 10.0625 21.761719 C 10.0625 21.726562 10.367188 21.640625 10.980469 21.488281 C 11.277344 21.421875 12.800781 21.507812 13.109375 21.613281 Z M 14.289062 21.945312 C 14.375 22.042969 14.464844 22.339844 14.488281 22.636719 C 14.550781 23.203125 14.464844 24.324219 14.359375 24.324219 C 14.324219 24.324219 14.246094 24.183594 14.183594 24.019531 C 14.078125 23.730469 13.109375 22.664062 12.941406 22.664062 C 12.800781 22.664062 12.855469 22.515625 13.109375 22.25 C 13.535156 21.769531 14.015625 21.648438 14.289062 21.945312 Z M 12.425781 22.636719 C 13.34375 22.90625 14.0625 23.730469 14.269531 24.761719 C 14.324219 25.023438 14.429688 25.347656 14.5 25.488281 C 14.648438 25.785156 14.59375 26.855469 14.421875 26.992188 C 14.359375 27.039062 14.296875 27.140625 14.28125 27.210938 C 14.226562 27.464844 13.984375 27.753906 13.867188 27.703125 C 13.808594 27.683594 13.730469 27.71875 13.703125 27.789062 C 13.613281 28.007812 12.878906 28.410156 12.335938 28.523438 C 11.609375 28.683594 10.429688 28.59375 9.757812 28.339844 C 9.390625 28.210938 9.101562 28.007812 8.765625 27.675781 C 8.515625 27.421875 8.261719 27.210938 8.214844 27.210938 C 8.171875 27.210938 8.09375 27.039062 8.03125 26.820312 C 7.972656 26.601562 7.890625 26.425781 7.847656 26.425781 C 7.71875 26.425781 7.867188 25.289062 8.03125 25.042969 C 8.128906 24.910156 8.339844 24.507812 8.515625 24.140625 C 9.222656 22.628906 10.597656 22.101562 12.425781 22.636719 Z M 15.09375 22.847656 C 15.617188 23.433594 15.863281 24.070312 15.90625 24.972656 C 15.996094 26.785156 15.207031 28.296875 13.632812 29.3125 C 12.792969 29.863281 12.046875 30.054688 10.894531 30.046875 C 9.484375 30.03125 8.582031 29.671875 7.753906 28.796875 C 6.527344 27.476562 6.464844 25.359375 7.621094 23.632812 C 8.191406 22.785156 8.226562 22.785156 8.226562 23.640625 C 8.226562 24.308594 8.199219 24.429688 7.988281 24.726562 C 7.148438 25.960938 7.683594 27.429688 9.308594 28.386719 C 9.894531 28.726562 11.191406 28.925781 12.039062 28.796875 C 13.457031 28.585938 14.542969 27.695312 14.789062 26.53125 C 14.882812 26.09375 14.8125 25.601562 14.613281 25.332031 C 14.472656 25.140625 14.453125 24.691406 14.585938 24.148438 C 14.65625 23.835938 14.699219 23.335938 14.683594 23.03125 C 14.664062 22.734375 14.671875 22.488281 14.707031 22.488281 C 14.742188 22.488281 14.910156 22.652344 15.09375 22.847656 Z M 20.648438 22.664062 C 21.289062 22.765625 22.007812 23.082031 22.296875 23.390625 L 22.488281 23.589844 L 21.882812 24.183594 L 21.28125 24.789062 L 20.816406 24.550781 C 19.863281 24.078125 18.714844 24.316406 18.15625 25.09375 C 17.816406 25.59375 17.746094 26.40625 18.023438 26.84375 C 18.417969 27.484375 19.566406 27.597656 19.765625 27.019531 C 19.933594 26.554688 19.898438 26.511719 19.433594 26.511719 C 19.1875 26.511719 18.980469 26.476562 18.953125 26.441406 C 18.925781 26.398438 18.980469 26.136719 19.066406 25.847656 L 19.214844 25.332031 L 20.683594 25.304688 C 22.050781 25.289062 22.144531 25.296875 22.101562 25.4375 C 21.867188 26.257812 21.445312 27.746094 21.402344 27.964844 C 21.367188 28.121094 21.269531 28.304688 21.183594 28.386719 C 20.894531 28.648438 20.011719 28.890625 19.1875 28.9375 C 18.347656 28.988281 17.832031 28.902344 17.195312 28.613281 C 16.816406 28.4375 16.101562 27.738281 16.101562 27.546875 C 16.101562 27.484375 16.179688 27.175781 16.273438 26.878906 C 16.46875 26.257812 16.511719 25.21875 16.355469 24.78125 C 16.273438 24.550781 16.292969 24.464844 16.484375 24.175781 C 16.929688 23.503906 18.058594 22.828125 18.988281 22.671875 C 19.660156 22.566406 19.992188 22.566406 20.648438 22.664062 Z M 6.039062 23.03125 C 6.464844 23.230469 7.175781 23.816406 7.175781 23.976562 C 7.175781 24.011719 7.078125 24.265625 6.957031 24.535156 C 6.640625 25.234375 6.519531 26.1875 6.640625 26.878906 L 6.738281 27.421875 L 6.421875 27.746094 C 6.027344 28.148438 5.433594 28.472656 4.761719 28.664062 C 4.164062 28.832031 0.742188 28.953125 0.605469 28.8125 C 0.550781 28.761719 0.585938 28.488281 0.691406 28.078125 C 1.109375 26.484375 2.117188 22.882812 2.160156 22.8125 C 2.1875 22.765625 2.949219 22.75 3.886719 22.765625 C 5.460938 22.800781 5.582031 22.8125 6.039062 23.03125 Z M 29.066406 22.800781 C 29.101562 22.828125 29.066406 23.011719 29.007812 23.214844 C 28.9375 23.414062 28.839844 23.746094 28.789062 23.949219 L 28.691406 24.324219 L 27.027344 24.324219 C 25.242188 24.324219 25.296875 24.308594 25.261719 24.804688 L 25.242188 25.058594 L 26.679688 25.035156 C 27.695312 25.015625 28.132812 25.042969 28.175781 25.113281 C 28.234375 25.207031 27.972656 26.3125 27.859375 26.417969 C 27.832031 26.441406 27.140625 26.46875 26.328125 26.46875 C 24.640625 26.46875 24.703125 26.441406 24.640625 27.140625 C 24.632812 27.222656 25.042969 27.238281 26.234375 27.222656 C 27.492188 27.203125 27.832031 27.222656 27.867188 27.316406 C 27.886719 27.378906 27.816406 27.746094 27.703125 28.132812 L 27.5 28.832031 L 24.851562 28.859375 L 22.199219 28.875 L 22.25 28.59375 C 22.285156 28.4375 22.445312 27.78125 22.617188 27.140625 C 22.933594 25.925781 22.996094 25.585938 22.800781 26.03125 C 22.6875 26.285156 22.6875 26.292969 22.628906 26.09375 C 22.546875 25.855469 22.707031 25.628906 22.882812 25.691406 C 23.011719 25.742188 23.039062 25.65625 23.539062 23.816406 L 23.828125 22.75 L 26.425781 22.75 C 27.851562 22.75 29.042969 22.777344 29.066406 22.800781 Z M 27.011719 26.976562 C 27.039062 27.011719 26.835938 27.046875 26.546875 27.046875 C 26.265625 27.054688 25.839844 27.0625 25.601562 27.074219 C 25.3125 27.082031 25.15625 27.046875 25.128906 26.96875 C 25.105469 26.871094 25.277344 26.855469 26.023438 26.878906 C 26.53125 26.90625 26.976562 26.941406 27.011719 26.976562 Z M 27.386719 26.949219 C 27.386719 26.992188 27.34375 27.039062 27.292969 27.039062 C 27.246094 27.039062 27.230469 26.992188 27.257812 26.949219 C 27.28125 26.898438 27.328125 26.863281 27.351562 26.863281 C 27.371094 26.863281 27.386719 26.898438 27.386719 26.949219 Z M 47.292969 30.019531 C 47.171875 30.527344 47.101562 30.652344 46.890625 30.757812 C 46.53125 30.941406 46.515625 30.921875 46.742188 30.609375 C 47.058594 30.152344 47.234375 29.800781 47.300781 29.433594 C 47.347656 29.234375 47.390625 29.15625 47.40625 29.25 C 47.425781 29.339844 47.371094 29.6875 47.292969 30.019531 Z M 25.980469 29.363281 C 26.023438 29.398438 25.960938 29.53125 25.644531 30.054688 C 25.496094 30.292969 25.304688 30.667969 25.199219 30.886719 L 25.015625 31.28125 L 24.726562 30.976562 C 24.351562 30.5625 23.582031 29.566406 23.519531 29.398438 C 23.476562 29.285156 23.632812 29.269531 24.710938 29.296875 C 25.382812 29.3125 25.960938 29.347656 25.980469 29.363281 Z M 44.171875 30.066406 C 44.011719 30.703125 43.890625 30.757812 43.960938 30.152344 C 44.019531 29.574219 44.082031 29.433594 44.203125 29.558594 C 44.25 29.601562 44.238281 29.800781 44.171875 30.066406 Z M 45.796875 30.84375 C 46.304688 34.992188 46.199219 39.699219 45.535156 42.585938 C 45.089844 44.539062 44.003906 46.472656 42.585938 47.835938 C 40.878906 49.488281 38.824219 50.515625 36.214844 51.003906 C 35.175781 51.203125 33.863281 51.335938 33.863281 51.238281 C 33.863281 50.996094 34.082031 50.835938 34.535156 50.75 C 40.914062 49.515625 44.378906 45.296875 44.984375 38.019531 C 45.105469 36.582031 45.035156 33.773438 44.84375 32.304688 C 44.730469 31.367188 44.738281 31.0625 44.878906 31.0625 C 44.976562 31.0625 45.414062 30.136719 45.414062 29.933594 C 45.414062 29.847656 45.4375 29.699219 45.464844 29.617188 C 45.570312 29.355469 45.648438 29.652344 45.796875 30.84375 Z M 28.175781 30.40625 C 28.21875 30.640625 28.339844 31.394531 28.445312 32.070312 C 28.542969 32.742188 28.699219 33.785156 28.796875 34.386719 C 28.882812 34.992188 28.960938 35.550781 28.960938 35.628906 C 28.960938 35.769531 28.859375 35.789062 27.964844 35.789062 L 26.976562 35.789062 L 26.898438 35.410156 L 26.820312 35.042969 L 25.898438 35.015625 C 25.390625 35 24.902344 35.007812 24.804688 35.035156 C 24.710938 35.0625 24.535156 35.234375 24.414062 35.4375 L 24.195312 35.789062 L 23.171875 35.789062 C 22.601562 35.789062 22.136719 35.769531 22.136719 35.742188 C 22.136719 35.71875 22.3125 35.453125 22.53125 35.15625 C 23.011719 34.476562 22.941406 34.578125 24.613281 32.199219 C 25.375 31.113281 26.066406 30.171875 26.152344 30.101562 C 26.265625 30.003906 26.53125 29.96875 27.195312 29.96875 L 28.085938 29.96875 Z M 43.6875 30.398438 C 43.644531 30.828125 43.652344 30.859375 43.847656 30.914062 C 44.117188 30.984375 44.25 30.851562 44.320312 30.441406 C 44.355469 30.257812 44.414062 30.101562 44.46875 30.101562 C 44.511719 30.101562 44.527344 30.171875 44.503906 30.25 C 44.40625 30.554688 44.273438 31.640625 44.273438 32.140625 C 44.273438 32.820312 44.179688 32.996094 43.8125 32.945312 L 43.53125 32.898438 L 43.785156 32.988281 C 44.117188 33.09375 44.363281 32.960938 44.363281 32.679688 C 44.363281 32.558594 44.398438 32.460938 44.441406 32.460938 C 44.554688 32.460938 44.667969 34.476562 44.652344 36.242188 C 44.617188 39.796875 43.941406 42.691406 42.628906 44.949219 C 41.152344 47.476562 38.945312 49.15625 35.996094 49.988281 C 34.730469 50.355469 34.265625 50.433594 34.328125 50.285156 C 35.148438 48.054688 35.324219 47.136719 35.15625 45.78125 L 35.070312 45.054688 L 35.367188 44.730469 C 36.15625 43.835938 36.480469 43.425781 37.019531 42.59375 C 37.371094 42.070312 37.632812 41.753906 37.660156 41.832031 C 37.675781 41.902344 37.738281 42.148438 37.800781 42.394531 C 37.914062 42.902344 38.019531 43.050781 38.253906 43.050781 C 38.703125 43.050781 39.585938 42.332031 39.910156 41.71875 L 40.058594 41.429688 L 40.242188 41.851562 C 40.347656 42.085938 40.425781 42.351562 40.425781 42.445312 C 40.425781 42.535156 40.503906 42.691406 40.601562 42.789062 C 40.765625 42.953125 40.792969 42.953125 41.109375 42.832031 C 41.789062 42.550781 42.191406 41.824219 42.191406 40.84375 C 42.191406 40.199219 42.289062 40.1875 42.9375 40.820312 C 43.398438 41.257812 43.445312 41.28125 43.582031 41.160156 C 43.679688 41.074219 43.757812 40.820312 43.792969 40.46875 C 43.90625 39.445312 43.445312 38.570312 42.5 38.011719 C 42.203125 37.835938 41.878906 37.617188 41.78125 37.527344 C 41.683594 37.441406 41.359375 37.25 41.0625 37.109375 C 40.617188 36.890625 40.453125 36.734375 40.164062 36.3125 C 39.769531 35.734375 39.769531 35.71875 39.953125 34.867188 C 40.117188 34.074219 40.511719 31.148438 40.511719 30.652344 C 40.511719 30.433594 40.554688 30.273438 40.609375 30.273438 C 40.660156 30.273438 40.898438 30.449219 41.132812 30.660156 C 41.625 31.097656 42.132812 31.402344 42.683594 31.578125 C 42.882812 31.648438 43.050781 31.746094 43.050781 31.796875 C 43.058594 31.988281 43.328125 31.265625 43.453125 30.710938 C 43.601562 30.054688 43.644531 29.925781 43.699219 29.925781 C 43.714844 29.925781 43.714844 30.136719 43.6875 30.398438 Z M 8.941406 30.066406 C 9.011719 30.125 8.757812 31.0625 8.617188 31.296875 C 8.546875 31.402344 7.769531 32.085938 6.894531 32.8125 C 6.011719 33.546875 5.285156 34.175781 5.265625 34.222656 C 5.25 34.265625 5.800781 34.300781 6.519531 34.300781 L 7.804688 34.300781 L 7.753906 34.597656 C 7.71875 34.765625 7.640625 35.097656 7.558594 35.339844 L 7.429688 35.789062 L 4.769531 35.789062 C 3.296875 35.789062 2.101562 35.761719 2.101562 35.734375 C 2.101562 35.707031 2.171875 35.429688 2.257812 35.113281 L 2.40625 34.535156 L 3.667969 33.476562 C 4.359375 32.890625 4.96875 32.375 5.023438 32.332031 C 5.074219 32.277344 5.265625 32.128906 5.453125 31.988281 C 5.625 31.851562 5.773438 31.710938 5.773438 31.667969 C 5.773438 31.621094 5.25 31.578125 4.621094 31.570312 L 3.457031 31.542969 L 3.464844 31.28125 C 3.472656 31.132812 3.542969 30.792969 3.632812 30.511719 L 3.769531 30.011719 L 6.335938 30.011719 C 7.742188 30.011719 8.917969 30.039062 8.941406 30.066406 Z M 14.613281 30.117188 C 14.613281 30.179688 14.375 31.097656 14.085938 32.148438 C 13.796875 33.207031 13.5625 34.097656 13.5625 34.140625 C 13.5625 34.175781 14.15625 34.210938 14.875 34.210938 C 16.390625 34.210938 16.300781 34.140625 16.003906 35.148438 C 15.828125 35.726562 15.792969 35.789062 15.582031 35.789062 C 14.445312 35.804688 11.242188 35.777344 11.21875 35.753906 C 11.191406 35.71875 11.417969 34.851562 12.363281 31.421875 L 12.644531 30.421875 L 13.054688 30.300781 C 13.28125 30.238281 13.492188 30.144531 13.519531 30.101562 C 13.597656 29.96875 14.613281 29.984375 14.613281 30.117188 Z M 20.011719 30.335938 C 19.976562 30.519531 19.757812 31.359375 19.519531 32.199219 C 19.285156 33.039062 19.074219 33.835938 19.039062 33.96875 L 18.988281 34.203125 L 20.316406 34.230469 L 21.65625 34.257812 L 21.628906 34.484375 C 21.613281 34.605469 21.535156 34.9375 21.445312 35.226562 L 21.296875 35.742188 L 18.953125 35.769531 C 16.746094 35.789062 16.617188 35.777344 16.660156 35.640625 C 16.6875 35.550781 16.984375 34.457031 17.332031 33.207031 C 17.675781 31.953125 18.015625 30.722656 18.085938 30.46875 L 18.207031 30.011719 L 20.0625 30.011719 Z M 10.726562 30.546875 C 11.070312 30.589844 11.410156 30.617188 11.472656 30.609375 C 11.542969 30.589844 11.585938 30.617188 11.585938 30.667969 C 11.566406 30.765625 11.128906 32.382812 10.5625 34.429688 L 10.195312 35.742188 L 9.257812 35.769531 C 8.59375 35.789062 8.3125 35.761719 8.3125 35.691406 C 8.3125 35.640625 8.425781 35.191406 8.566406 34.703125 C 8.707031 34.222656 8.96875 33.285156 9.144531 32.636719 C 9.433594 31.550781 9.660156 30.757812 9.765625 30.457031 C 9.78125 30.390625 9.859375 30.371094 9.949219 30.398438 C 10.027344 30.433594 10.378906 30.492188 10.726562 30.546875 Z M 47.933594 31.585938 C 48.441406 31.78125 48.152344 31.789062 47.609375 31.597656 C 47.3125 31.492188 47.003906 31.414062 46.917969 31.402344 C 46.820312 31.394531 46.847656 31.367188 46.988281 31.332031 C 47.117188 31.289062 47.292969 31.308594 47.425781 31.378906 C 47.546875 31.4375 47.773438 31.535156 47.933594 31.585938 Z M 48.703125 31.894531 C 48.914062 32.050781 48.765625 32.058594 48.476562 31.894531 C 48.335938 31.816406 48.308594 31.769531 48.394531 31.761719 C 48.464844 31.761719 48.605469 31.824219 48.703125 31.894531 Z M 23.476562 32.015625 C 23.90625 32.105469 24.289062 32.21875 24.332031 32.261719 C 24.378906 32.304688 24.273438 32.488281 24.078125 32.707031 C 23.5625 33.292969 23.328125 33.609375 22.96875 34.210938 C 22.785156 34.527344 22.460938 34.984375 22.25 35.234375 C 22.050781 35.480469 21.875 35.734375 21.875 35.796875 C 21.875 35.859375 21.847656 35.882812 21.824219 35.847656 C 21.796875 35.824219 21.832031 35.5 21.917969 35.132812 C 22.058594 34.5 22.058594 34.449219 21.910156 34.292969 C 21.789062 34.152344 21.640625 34.125 21.042969 34.125 L 20.335938 34.125 L 20.175781 33.792969 C 19.941406 33.3125 19.863281 32.925781 19.984375 32.777344 C 20.125 32.59375 20.695312 32.460938 21.375 32.460938 C 21.804688 32.460938 21.960938 32.425781 21.960938 32.347656 C 21.960938 32.140625 22.285156 31.921875 22.664062 31.867188 C 22.6875 31.859375 23.054688 31.929688 23.476562 32.015625 Z M 49.9375 32.507812 C 50.433594 32.769531 50.917969 32.988281 50.996094 32.996094 C 51.117188 32.996094 51.109375 33.015625 50.96875 33.074219 C 50.664062 33.207031 50.539062 33.171875 50.191406 32.863281 C 49.996094 32.707031 49.640625 32.460938 49.375 32.332031 C 48.949219 32.113281 48.824219 32.023438 48.972656 32.023438 C 49 32.023438 49.4375 32.242188 49.9375 32.507812 Z M 38.789062 32.453125 C 38.492188 32.925781 38.28125 33.164062 38.175781 33.164062 C 38.113281 33.164062 38.089844 33.214844 38.105469 33.265625 C 38.167969 33.453125 37.757812 33.695312 37.539062 33.617188 C 37.34375 33.546875 37.34375 33.546875 37.574219 33.390625 C 37.703125 33.3125 37.84375 33.265625 37.894531 33.292969 C 37.941406 33.328125 37.964844 33.320312 37.957031 33.277344 C 37.941406 33.214844 38.851562 32.199219 38.921875 32.199219 C 38.9375 32.199219 38.886719 32.3125 38.789062 32.453125 Z M 52.703125 33.222656 C 52.640625 33.242188 52.535156 33.242188 52.484375 33.222656 C 52.421875 33.199219 52.464844 33.179688 52.585938 33.179688 C 52.710938 33.179688 52.753906 33.199219 52.703125 33.222656 Z M 38.160156 34.71875 C 38.9375 35.542969 39.242188 35.910156 39.742188 36.617188 C 39.980469 36.953125 40.257812 37.257812 40.355469 37.300781 C 40.609375 37.390625 40.519531 37.441406 40.1875 37.390625 C 39.953125 37.355469 39.875 37.265625 39.621094 36.757812 C 39.460938 36.445312 39.242188 36.109375 39.140625 36.023438 C 39.023438 35.9375 38.9375 35.824219 38.9375 35.769531 C 38.9375 35.726562 38.570312 35.332031 38.132812 34.902344 C 37.6875 34.476562 37.378906 34.125 37.457031 34.125 C 37.539062 34.125 37.851562 34.394531 38.160156 34.71875 Z M 22.207031 36.269531 C 22.304688 36.355469 22.296875 36.433594 22.15625 36.742188 C 22.050781 36.941406 21.945312 37.222656 21.917969 37.363281 C 21.882812 37.511719 21.832031 37.625 21.789062 37.625 C 21.671875 37.625 20.730469 36.304688 20.78125 36.226562 C 20.808594 36.191406 20.992188 36.191406 21.191406 36.242188 C 21.488281 36.304688 21.570312 36.296875 21.640625 36.179688 C 21.71875 36.03125 22.007812 36.078125 22.207031 36.269531 Z M 41.476562 37.984375 C 41.554688 38.0625 41.746094 38.195312 41.914062 38.273438 C 42.210938 38.402344 42.210938 38.402344 41.957031 38.351562 C 41.816406 38.324219 41.554688 38.175781 41.386719 38.027344 C 41.222656 37.878906 41.046875 37.722656 40.992188 37.675781 C 40.949219 37.632812 41.003906 37.652344 41.125 37.710938 C 41.246094 37.773438 41.40625 37.894531 41.476562 37.984375 Z M 20.84375 38.332031 C 21.097656 38.386719 21.339844 38.457031 21.375 38.492188 C 21.410156 38.527344 21.324219 38.859375 21.183594 39.21875 C 21.035156 39.585938 20.867188 40.082031 20.816406 40.328125 C 20.738281 40.722656 20.28125 41.449219 19.589844 42.296875 C 19.546875 42.351562 19.441406 42.488281 19.347656 42.613281 C 19.207031 42.796875 19.164062 42.8125 19.039062 42.699219 C 18.839844 42.542969 18.199219 41.386719 18.199219 41.1875 C 18.199219 41.109375 18.277344 40.957031 18.375 40.863281 L 18.558594 40.679688 L 18.339844 40.3125 C 18.058594 39.820312 17.910156 39.332031 17.980469 39.121094 C 18.042969 38.902344 18.453125 38.761719 19.003906 38.761719 C 19.328125 38.761719 19.441406 38.726562 19.484375 38.605469 C 19.625 38.210938 19.941406 38.140625 20.84375 38.332031 Z M 31.429688 41.386719 C 31.5625 41.464844 31.648438 41.5625 31.605469 41.597656 C 31.570312 41.632812 31.621094 41.648438 31.71875 41.632812 C 31.816406 41.625 31.894531 41.648438 31.894531 41.710938 C 31.894531 41.765625 31.929688 41.84375 31.972656 41.886719 C 32.015625 41.929688 32.023438 41.914062 31.988281 41.84375 C 31.867188 41.632812 32.078125 41.746094 32.359375 42.035156 C 32.550781 42.246094 32.601562 42.351562 32.53125 42.386719 C 32.472656 42.410156 32.507812 42.410156 32.621094 42.386719 C 32.734375 42.359375 32.8125 42.375 32.8125 42.4375 C 32.8125 42.488281 32.917969 42.640625 33.039062 42.761719 C 33.820312 43.539062 34.476562 45.132812 34.476562 46.253906 C 34.476562 46.882812 34.238281 48.484375 34.132812 48.5625 C 34.109375 48.589844 34.027344 48.796875 33.96875 49.042969 C 33.828125 49.59375 32.980469 51.273438 32.621094 51.738281 C 32.382812 52.035156 31.929688 52.324219 31.703125 52.324219 C 31.667969 52.324219 31.761719 52.195312 31.910156 52.035156 C 32.050781 51.886719 32.289062 51.597656 32.425781 51.40625 C 32.566406 51.214844 32.699219 51.039062 32.726562 51.011719 C 32.75 50.984375 32.820312 50.855469 32.882812 50.722656 C 32.945312 50.574219 33.03125 50.503906 33.09375 50.539062 C 33.152344 50.582031 33.164062 50.566406 33.117188 50.496094 C 33.058594 50.390625 33.144531 50.136719 33.53125 49.296875 C 33.835938 48.613281 34.175781 46.828125 34.140625 46.070312 C 34.125 45.640625 33.855469 44.539062 33.765625 44.539062 C 33.714844 44.539062 33.589844 44.214844 33.566406 44.003906 C 33.554688 43.976562 33.496094 43.890625 33.40625 43.8125 C 33.328125 43.734375 33.179688 43.523438 33.066406 43.339844 C 32.863281 43.023438 31.910156 42.015625 31.542969 41.738281 C 31.449219 41.667969 31.230469 41.492188 31.0625 41.351562 C 30.800781 41.140625 30.792969 41.109375 30.964844 41.167969 C 31.089844 41.203125 31.289062 41.300781 31.429688 41.386719 Z M 46.847656 41.554688 C 46.882812 41.597656 46.847656 41.660156 46.796875 41.675781 C 46.726562 41.710938 46.761719 41.746094 46.882812 41.78125 C 46.988281 41.816406 47.074219 41.886719 47.074219 41.949219 C 47.074219 42 47.179688 42.140625 47.300781 42.253906 C 47.433594 42.386719 47.511719 42.535156 47.484375 42.628906 C 47.460938 42.71875 47.46875 42.769531 47.503906 42.742188 C 47.589844 42.691406 47.773438 43.085938 47.773438 43.3125 C 47.773438 43.410156 47.820312 43.488281 47.871094 43.488281 C 47.914062 43.488281 47.933594 43.523438 47.90625 43.574219 C 47.878906 43.617188 47.914062 43.835938 47.992188 44.054688 C 48.195312 44.660156 48.125 46.472656 47.871094 47.03125 C 47.765625 47.277344 47.453125 48.125 47.382812 48.371094 C 47.347656 48.484375 47.285156 48.535156 47.234375 48.511719 C 47.171875 48.464844 47.152344 48.5 47.1875 48.589844 C 47.25 48.746094 46.898438 49.4375 46.296875 50.339844 C 46.128906 50.601562 45.515625 50.976562 45.429688 50.882812 C 45.394531 50.847656 45.457031 50.757812 45.550781 50.679688 C 46.007812 50.3125 46.933594 48.71875 47.214844 47.820312 C 47.234375 47.765625 47.300781 47.554688 47.363281 47.335938 C 47.617188 46.550781 47.730469 45.789062 47.730469 44.886719 C 47.730469 44.082031 47.695312 43.890625 47.484375 43.328125 C 47.347656 42.980469 47.058594 42.445312 46.847656 42.132812 C 46.636719 41.824219 46.460938 41.546875 46.460938 41.519531 C 46.460938 41.441406 46.796875 41.464844 46.847656 41.554688 Z M 18.15625 43.058594 C 18.417969 43.207031 18.636719 43.382812 18.636719 43.453125 C 18.636719 43.523438 18.609375 43.574219 18.578125 43.574219 C 18.53125 43.582031 18.171875 43.898438 17.761719 44.285156 C 17.148438 44.871094 16.152344 45.585938 15.960938 45.585938 C 15.933594 45.585938 15.792969 45.675781 15.644531 45.769531 C 15.339844 46 15.269531 45.9375 15.179688 45.351562 C 15.109375 44.878906 15.179688 44.652344 15.410156 44.582031 C 15.539062 44.539062 15.574219 44.46875 15.539062 44.335938 C 15.390625 43.699219 15.382812 43.226562 15.53125 42.996094 C 15.664062 42.789062 15.707031 42.777344 16.082031 42.832031 C 16.308594 42.867188 16.554688 42.925781 16.632812 42.972656 C 16.738281 43.023438 16.84375 42.988281 16.984375 42.867188 C 17.246094 42.640625 17.492188 42.683594 18.15625 43.058594 Z M 20.238281 43.007812 C 20.160156 43.171875 20.0625 43.285156 20.019531 43.261719 C 19.976562 43.234375 19.941406 43.261719 19.957031 43.320312 C 19.984375 43.539062 19.949219 43.617188 19.730469 43.871094 C 19.609375 44.011719 19.511719 44.152344 19.511719 44.1875 C 19.511719 44.335938 18.183594 45.691406 17.734375 46 C 17.535156 46.128906 17.289062 46.3125 17.195312 46.402344 C 17.097656 46.488281 16.929688 46.578125 16.828125 46.601562 C 16.710938 46.636719 16.625 46.691406 16.625 46.734375 C 16.625 46.777344 16.546875 46.8125 16.457031 46.8125 C 16.363281 46.8125 16.257812 46.855469 16.230469 46.898438 C 16.195312 46.953125 16.144531 46.96875 16.101562 46.945312 C 16.054688 46.917969 15.953125 46.925781 15.863281 46.96875 C 15.191406 47.3125 14.445312 47.441406 13.257812 47.453125 C 12.40625 47.453125 12.082031 47.417969 11.578125 47.257812 C 10.867188 47.03125 10.265625 46.671875 9.957031 46.277344 C 9.84375 46.128906 9.667969 45.910156 9.5625 45.789062 C 9.292969 45.457031 9.144531 45.160156 9.230469 45.089844 C 9.265625 45.046875 9.320312 45.078125 9.34375 45.148438 C 9.414062 45.386719 10.457031 46.324219 10.859375 46.523438 C 11.550781 46.863281 12.3125 47.023438 13.300781 47.023438 C 14.339844 47.023438 15.085938 46.882812 15.679688 46.585938 C 15.90625 46.472656 16.152344 46.375 16.222656 46.375 C 16.292969 46.375 16.363281 46.339844 16.378906 46.304688 C 16.398438 46.269531 16.660156 46.085938 16.976562 45.902344 C 17.289062 45.710938 17.585938 45.515625 17.632812 45.464844 C 17.683594 45.414062 17.9375 45.195312 18.199219 44.976562 C 18.460938 44.757812 18.699219 44.546875 18.714844 44.492188 C 18.734375 44.449219 18.96875 44.195312 19.222656 43.925781 C 19.484375 43.664062 19.820312 43.277344 19.96875 43.066406 C 20.300781 42.621094 20.441406 42.585938 20.238281 43.007812 Z M 13.019531 44.082031 C 13.082031 44.125 13.238281 44.371094 13.378906 44.632812 C 13.511719 44.894531 13.675781 45.105469 13.746094 45.113281 C 13.816406 45.113281 13.921875 45.132812 13.972656 45.132812 C 14.078125 45.148438 14.359375 45.632812 14.472656 45.988281 C 14.523438 46.171875 14.488281 46.183594 13.695312 46.242188 C 12.855469 46.304688 12.417969 46.253906 11.558594 45.972656 C 11 45.789062 11.007812 45.796875 11.242188 45.332031 C 11.515625 44.800781 11.699219 44.609375 11.898438 44.667969 C 11.996094 44.703125 12.164062 44.597656 12.398438 44.363281 C 12.765625 43.996094 12.835938 43.96875 13.019531 44.082031 Z M 9.285156 46.261719 C 9.414062 46.691406 9.828125 47.546875 9.914062 47.582031 C 9.949219 47.601562 9.976562 47.652344 9.976562 47.703125 C 9.976562 47.871094 10.859375 48.992188 11.3125 49.402344 C 12.984375 50.90625 14.996094 51.597656 18.296875 51.78125 L 19.382812 51.84375 L 19.082031 52.035156 C 18.917969 52.140625 18.445312 52.332031 18.035156 52.472656 C 17.34375 52.703125 17.175781 52.71875 15.96875 52.71875 C 14.691406 52.71875 14.628906 52.710938 13.78125 52.414062 C 12.511719 51.957031 11.585938 51.378906 10.734375 50.488281 C 9.929688 49.65625 9.546875 48.964844 9.265625 47.878906 C 9.125 47.3125 9.03125 45.9375 9.136719 45.9375 C 9.160156 45.9375 9.222656 46.085938 9.285156 46.261719 Z M 47.398438 51.722656 C 47.941406 51.976562 48.109375 52.113281 47.992188 52.21875 C 47.96875 52.246094 47.914062 52.230469 47.878906 52.175781 C 47.808594 52.0625 46.691406 51.539062 46.507812 51.539062 C 46.445312 51.539062 46.359375 51.492188 46.324219 51.441406 C 46.234375 51.292969 46.777344 51.433594 47.398438 51.722656 Z M 49.4375 52.683594 C 49.824219 52.886719 49.980469 53.015625 50.164062 53.289062 C 50.339844 53.542969 50.363281 53.785156 50.207031 53.664062 C 50.144531 53.609375 49.953125 53.523438 49.777344 53.472656 C 49.605469 53.410156 49.339844 53.269531 49.210938 53.15625 C 48.914062 52.902344 48.464844 52.675781 48.265625 52.675781 C 48.1875 52.675781 48.125 52.640625 48.125 52.597656 C 48.125 52.378906 48.957031 52.429688 49.4375 52.683594 Z M 32.898438 52.761719 C 32.726562 52.875 32.523438 52.875 32.59375 52.761719 C 32.621094 52.710938 32.734375 52.675781 32.839844 52.675781 C 32.996094 52.675781 33.003906 52.691406 32.898438 52.761719 Z M 33.625 52.988281 C 34.167969 53.253906 34.441406 53.445312 34.371094 53.507812 C 34.34375 53.53125 34.117188 53.4375 33.863281 53.289062 C 33.609375 53.140625 33.285156 52.988281 33.144531 52.964844 C 32.960938 52.929688 32.917969 52.894531 33.003906 52.839844 C 33.152344 52.746094 33.109375 52.726562 33.625 52.988281 Z M 48.640625 53.058594 C 49.042969 53.261719 49.464844 53.707031 49.570312 54.066406 L 49.628906 54.277344 L 49.339844 54.09375 C 49.175781 53.996094 48.789062 53.863281 48.476562 53.8125 C 48.160156 53.75 47.828125 53.664062 47.730469 53.609375 C 47.636719 53.558594 47.453125 53.460938 47.320312 53.390625 C 46.996094 53.234375 47.015625 53.042969 47.363281 52.894531 C 47.695312 52.746094 48.109375 52.796875 48.640625 53.058594 Z M 47.320312 53.65625 C 47.695312 53.828125 48.210938 54.417969 48.210938 54.660156 C 48.210938 54.730469 48.1875 54.773438 48.152344 54.757812 C 47.695312 54.519531 47.320312 54.40625 46.820312 54.347656 C 46.183594 54.265625 45.675781 54.046875 45.675781 53.863281 C 45.675781 53.742188 45.902344 53.515625 46.113281 53.4375 C 46.324219 53.359375 46.910156 53.460938 47.320312 53.65625 Z M 35.925781 54.117188 C 36.269531 54.320312 36.664062 54.773438 36.664062 54.96875 C 36.664062 55.082031 35.777344 54.679688 35.394531 54.390625 C 35.175781 54.214844 34.859375 54.058594 34.695312 54.023438 C 34.195312 53.933594 34.441406 53.785156 35.007812 53.839844 C 35.339844 53.863281 35.664062 53.96875 35.925781 54.117188 Z M 34.640625 54.25 C 35.210938 54.40625 35.875 55.027344 35.875 55.40625 C 35.875 55.519531 35.804688 55.5 35.464844 55.335938 C 35.246094 55.222656 34.914062 55.125 34.730469 55.125 C 34.527344 55.125 34.175781 55.011719 33.855469 54.84375 L 33.3125 54.574219 L 33.546875 54.363281 C 33.800781 54.144531 34.152344 54.109375 34.640625 54.25 Z M 34.640625 54.25 "/>
<path style=" stroke:none;fill-rule:nonzero;fill:rgb(0%,0%,0%);fill-opacity:1;" d="M 35.0625 11.105469 C 34.414062 11.367188 34.039062 11.691406 34.039062 11.980469 C 34.039062 12.398438 34.203125 12.441406 34.789062 12.207031 C 35.734375 11.8125 36.6875 11.960938 37.421875 12.601562 C 37.582031 12.75 37.773438 12.863281 37.84375 12.863281 C 37.976562 12.863281 38.238281 12.636719 38.238281 12.511719 C 38.238281 12.117188 37.675781 11.460938 37.125 11.199219 C 36.539062 10.929688 35.613281 10.886719 35.0625 11.105469 Z M 35.0625 11.105469 "/>
<path style=" stroke:none;fill-rule:nonzero;fill:rgb(0%,0%,0%);fill-opacity:1;" d="M 44.152344 11.855469 C 43.433594 12.136719 42.980469 12.652344 43.085938 13.074219 C 43.15625 13.371094 43.328125 13.359375 44.046875 13.027344 C 44.554688 12.792969 44.703125 12.757812 45.175781 12.792969 C 45.726562 12.828125 46.425781 13.089844 46.636719 13.34375 C 46.855469 13.605469 47.25 13.441406 47.25 13.082031 C 47.25 12.792969 46.761719 12.285156 46.253906 12.03125 C 45.65625 11.742188 44.667969 11.65625 44.152344 11.855469 Z M 44.152344 11.855469 "/>
<path style=" stroke:none;fill-rule:nonzero;fill:rgb(0%,0%,0%);fill-opacity:1;" d="M 39.226562 13.84375 C 38.691406 13.957031 38.378906 14.351562 38.4375 14.839844 C 38.484375 15.261719 38.832031 15.792969 39.234375 16.054688 C 39.382812 16.152344 39.542969 16.320312 39.601562 16.421875 C 39.65625 16.539062 39.761719 16.695312 39.839844 16.78125 C 39.933594 16.886719 39.988281 17.097656 39.988281 17.402344 C 39.988281 17.839844 39.980469 17.867188 39.679688 17.988281 C 39.234375 18.171875 38.859375 18.140625 38.367188 17.867188 C 37.878906 17.597656 37.421875 17.035156 37.660156 16.992188 C 37.886719 16.949219 37.730469 16.800781 37.449219 16.800781 C 37.109375 16.800781 36.933594 16.878906 36.828125 17.078125 C 36.75 17.230469 36.757812 17.246094 36.90625 17.203125 C 37.039062 17.160156 37.101562 17.203125 37.1875 17.414062 C 37.25 17.5625 37.476562 17.832031 37.6875 18.023438 C 37.914062 18.226562 38.105469 18.480469 38.160156 18.664062 C 38.296875 19.171875 38.859375 19.890625 39.289062 20.097656 C 39.785156 20.359375 40.417969 20.359375 40.933594 20.117188 C 41.300781 19.933594 41.929688 19.25 42.042969 18.910156 C 42.070312 18.8125 42.304688 18.621094 42.570312 18.472656 C 42.832031 18.324219 43.109375 18.09375 43.199219 17.964844 C 43.277344 17.824219 43.355469 17.703125 43.375 17.683594 C 43.382812 17.667969 43.453125 17.703125 43.53125 17.761719 C 43.722656 17.921875 43.6875 17.734375 43.488281 17.515625 C 43.285156 17.308594 42.9375 17.183594 42.789062 17.28125 C 42.707031 17.332031 42.707031 17.367188 42.796875 17.421875 C 42.890625 17.484375 42.847656 17.570312 42.59375 17.796875 C 42.0625 18.304688 41.265625 18.425781 40.671875 18.09375 C 40.398438 17.945312 40.335938 17.859375 40.371094 17.71875 C 40.398438 17.621094 40.425781 17.457031 40.425781 17.351562 C 40.425781 17.140625 41.300781 16.1875 41.492188 16.1875 C 41.640625 16.1875 42.097656 15.777344 42.296875 15.46875 C 42.480469 15.191406 42.507812 14.769531 42.359375 14.488281 C 42.183594 14.175781 41.554688 13.921875 40.703125 13.824219 C 39.828125 13.730469 39.726562 13.730469 39.226562 13.84375 Z M 40.398438 14.140625 C 40.371094 14.167969 40.292969 14.175781 40.234375 14.148438 C 40.164062 14.121094 40.1875 14.097656 40.285156 14.097656 C 40.382812 14.085938 40.433594 14.113281 40.398438 14.140625 Z M 39.707031 19.300781 C 39.828125 19.335938 39.898438 19.425781 39.898438 19.539062 C 39.898438 19.703125 39.910156 19.703125 40.066406 19.566406 C 40.292969 19.355469 40.785156 19.292969 40.984375 19.453125 C 41.152344 19.574219 41.152344 19.582031 40.921875 19.730469 C 40.582031 19.949219 40.109375 20.039062 39.742188 19.933594 C 39.402344 19.84375 38.910156 19.453125 38.988281 19.320312 C 39.042969 19.242188 39.417969 19.234375 39.707031 19.300781 Z M 39.707031 19.300781 "/>
<path style=" stroke:none;fill-rule:nonzero;fill:rgb(0%,0%,0%);fill-opacity:1;" d="M 37.492188 20.832031 C 38.105469 21.570312 38.710938 21.804688 40.082031 21.859375 C 41.046875 21.890625 41.132812 21.882812 41.632812 21.65625 C 41.929688 21.523438 42.234375 21.339844 42.324219 21.246094 C 42.464844 21.085938 42.429688 21.085938 42.035156 21.289062 C 41.351562 21.628906 40.636719 21.734375 39.691406 21.613281 C 38.753906 21.488281 38.351562 21.351562 37.757812 20.929688 C 37.414062 20.695312 37.355469 20.667969 37.492188 20.832031 Z M 37.492188 20.832031 "/>
<path style=" stroke:none;fill-rule:nonzero;fill:rgb(0%,0%,0%);fill-opacity:1;" d="M 9.625 24.613281 C 9.457031 24.675781 9.308594 24.78125 9.292969 24.859375 C 9.265625 24.980469 9.328125 25 9.652344 24.964844 C 9.921875 24.929688 10.105469 24.964844 10.253906 25.058594 C 10.492188 25.207031 10.613281 25.121094 10.527344 24.867188 C 10.492188 24.78125 10.046875 24.492188 9.957031 24.507812 C 9.941406 24.507812 9.792969 24.550781 9.625 24.613281 Z M 9.625 24.613281 "/>
<path style=" stroke:none;fill-rule:nonzero;fill:rgb(0%,0%,0%);fill-opacity:1;" d="M 12.277344 24.894531 C 12.164062 24.972656 12.074219 25.09375 12.074219 25.164062 C 12.074219 25.3125 12.109375 25.3125 12.476562 25.183594 C 12.714844 25.09375 12.800781 25.105469 12.992188 25.234375 C 13.195312 25.367188 13.246094 25.375 13.308594 25.277344 C 13.511719 24.953125 12.636719 24.632812 12.277344 24.894531 Z M 12.277344 24.894531 "/>
<path style=" stroke:none;fill-rule:nonzero;fill:rgb(0%,0%,0%);fill-opacity:1;" d="M 10.761719 25.523438 C 10.527344 25.691406 10.542969 25.75 10.851562 26.101562 C 11.140625 26.433594 11.183594 26.644531 10.972656 26.722656 C 10.816406 26.785156 10.492188 26.636719 10.386719 26.453125 C 10.34375 26.390625 10.273438 26.355469 10.230469 26.390625 C 10.183594 26.417969 10.230469 26.546875 10.34375 26.6875 C 10.457031 26.828125 10.613281 27.039062 10.703125 27.160156 C 10.945312 27.519531 11.289062 27.464844 11.785156 26.992188 C 12.003906 26.773438 12.164062 26.574219 12.136719 26.539062 C 12.101562 26.511719 12.003906 26.546875 11.917969 26.625 C 11.828125 26.714844 11.644531 26.773438 11.523438 26.773438 C 11.332031 26.773438 11.289062 26.730469 11.289062 26.554688 C 11.289062 26.425781 11.375 26.285156 11.507812 26.199219 C 11.785156 26.015625 11.910156 25.796875 11.8125 25.644531 C 11.699219 25.460938 10.972656 25.375 10.761719 25.523438 Z M 11.070312 27.210938 C 11.09375 27.257812 11.085938 27.300781 11.035156 27.300781 C 10.988281 27.300781 10.921875 27.257812 10.894531 27.210938 C 10.867188 27.160156 10.875 27.125 10.929688 27.125 C 10.972656 27.125 11.042969 27.160156 11.070312 27.210938 Z M 11.070312 27.210938 "/>
<path style=" stroke:none;fill-rule:nonzero;fill:rgb(0%,0%,0%);fill-opacity:1;" d="M 3.71875 24.5 C 3.675781 24.570312 2.976562 27.019531 2.976562 27.097656 C 2.976562 27.160156 3.929688 27.117188 4.191406 27.039062 C 4.980469 26.820312 5.484375 26.128906 5.398438 25.410156 C 5.347656 24.9375 5.082031 24.621094 4.644531 24.5 C 4.234375 24.386719 3.789062 24.386719 3.71875 24.5 Z M 3.71875 24.5 "/>
<path style=" stroke:none;fill-rule:nonzero;fill:rgb(0%,0%,0%);fill-opacity:1;" d="M 26.039062 32.925781 C 25.820312 33.285156 25.636719 33.609375 25.636719 33.660156 C 25.636719 33.738281 25.820312 33.75 26.617188 33.695312 C 26.75 33.6875 26.765625 33.625 26.722656 33.265625 C 26.636719 32.507812 26.589844 32.289062 26.511719 32.289062 C 26.46875 32.289062 26.257812 32.578125 26.039062 32.925781 Z M 26.039062 32.925781 "/>
<path style=" stroke:none;fill-rule:nonzero;fill:rgb(0%,0%,0%);fill-opacity:1;" d="M 42.902344 32.171875 C 42.742188 32.507812 42.761719 32.628906 42.925781 32.390625 C 42.996094 32.289062 43.050781 32.140625 43.03125 32.070312 C 43.015625 31.980469 42.972656 32.023438 42.902344 32.171875 Z M 42.902344 32.171875 "/>
<path style=" stroke:none;fill-rule:nonzero;fill:rgb(0%,0%,0%);fill-opacity:1;" d="M 43.136719 32.113281 C 43.136719 32.15625 43.179688 32.199219 43.226562 32.199219 C 43.277344 32.199219 43.3125 32.15625 43.3125 32.113281 C 43.3125 32.058594 43.277344 32.023438 43.226562 32.023438 C 43.179688 32.023438 43.136719 32.058594 43.136719 32.113281 Z M 43.136719 32.113281 "/>
<path style=" stroke:none;fill-rule:nonzero;fill:rgb(0%,0%,0%);fill-opacity:1;" d="M 43.453125 32.121094 C 43.480469 32.164062 43.59375 32.199219 43.714844 32.199219 C 43.960938 32.199219 44.089844 32.417969 43.933594 32.578125 C 43.820312 32.691406 43.8125 32.8125 43.917969 32.8125 C 43.996094 32.8125 44.230469 32.304688 44.179688 32.242188 C 44.101562 32.164062 43.398438 32.050781 43.453125 32.121094 Z M 43.453125 32.121094 "/>
<path style=" stroke:none;fill-rule:nonzero;fill:rgb(0%,0%,0%);fill-opacity:1;" d="M 43.050781 32.460938 C 43.050781 32.515625 43.15625 32.59375 43.277344 32.636719 C 43.566406 32.75 43.6875 32.75 43.617188 32.636719 C 43.59375 32.585938 43.488281 32.550781 43.390625 32.550781 C 43.304688 32.550781 43.226562 32.507812 43.226562 32.460938 C 43.226562 32.410156 43.191406 32.375 43.136719 32.375 C 43.09375 32.375 43.050781 32.417969 43.050781 32.460938 Z M 43.050781 32.460938 "/>
<path style=" stroke:none;fill-rule:nonzero;fill:rgb(0%,0%,0%);fill-opacity:1;" d="M 42.917969 32.820312 C 42.980469 32.910156 43.398438 32.980469 43.398438 32.898438 C 43.398438 32.863281 43.285156 32.8125 43.144531 32.796875 C 42.996094 32.777344 42.902344 32.785156 42.917969 32.820312 Z M 42.917969 32.820312 "/>
<path style=" stroke:none;fill-rule:nonzero;fill:rgb(0%,0%,0%);fill-opacity:1;" d="M 33.519531 49.664062 C 33.519531 49.761719 33.546875 49.789062 33.574219 49.71875 C 33.601562 49.65625 33.589844 49.578125 33.566406 49.550781 C 33.539062 49.515625 33.511719 49.570312 33.519531 49.664062 Z M 33.519531 49.664062 "/>
<path style=" stroke:none;fill-rule:nonzero;fill:rgb(0%,0%,0%);fill-opacity:1;" d="M 33.300781 50.015625 C 33.222656 50.226562 33.242188 50.261719 33.382812 50.136719 C 33.53125 50.015625 33.554688 49.875 33.433594 49.875 C 33.390625 49.875 33.328125 49.9375 33.300781 50.015625 Z M 33.300781 50.015625 "/>
</g>
</svg>
